<?xml version="1.0" encoding="UTF-8"?>
<svg version="1.1" xmlns="http://www.w3.org/2000/svg" width="407" height="288">
<path d="M0 0 C2.21602226 -0.00216502 4.43152778 -0.02030588 6.64746094 -0.03930664 C30.36955764 -0.13287614 55.7207996 3.26605774 74.43652344 19.06030273 C84.24433591 27.09998877 96.11161953 31.22207744 107.87988281 35.4987793 C122.25418799 40.77836996 132.8561579 47.60058049 143.74902344 58.18530273 C144.64492188 59.04897461 145.54082031 59.91264648 146.46386719 60.80249023 C151.84056938 66.40896602 154.14592466 72.33237035 154.03027344 80.09545898 C153.4116711 84.69201805 151.00258095 88.06605496 147.56152344 91.13842773 C133.46189127 101.3998267 116.97800934 105.59526897 99.74902344 106.18530273 C99.50466553 107.10496826 99.50466553 107.10496826 99.25537109 108.04321289 C97.50237757 114.29026604 95.19331993 119.85297735 92.12402344 125.56030273 C91.68525879 126.38248291 91.24649414 127.20466309 90.79443359 128.05175781 C87.03017093 134.95155247 82.85670202 141.18729486 77.74902344 147.18530273 C77.13929688 147.90717773 76.52957031 148.62905273 75.90136719 149.37280273 C69.63210859 156.18779297 61.38994553 161.15062946 53.28027344 165.51342773 C48.15108346 168.31475457 46.04104143 171.5625523 43.21777344 176.63842773 C38.05544015 185.59013333 30.20230612 190.67924563 21.74902344 196.18530273 C20.26402344 197.17530273 20.26402344 197.17530273 18.74902344 198.18530273 C29.63902344 200.66030273 29.63902344 200.66030273 40.74902344 203.18530273 C41.55339844 201.41155273 42.35777344 199.63780273 43.18652344 197.81030273 C50.05056066 184.22589419 61.5352898 174.67349994 75.68652344 169.24780273 C92.60421234 163.78440654 112.4598362 163.08608055 129.17871094 169.79858398 C135.88068204 173.41438906 142.29492774 179.00038685 145.25292969 186.16186523 C146.78208428 192.39888949 145.04919106 197.09207986 141.87402344 202.49780273 C140.86072795 204.07884921 139.82001497 205.64275522 138.74902344 207.18530273 C137.97171875 208.32032227 137.97171875 208.32032227 137.17871094 209.47827148 C136.70691406 210.0415918 136.23511719 210.60491211 135.74902344 211.18530273 C135.08902344 211.18530273 134.42902344 211.18530273 133.74902344 211.18530273 C133.52601563 211.88526367 133.30300781 212.58522461 133.07324219 213.30639648 C131.44875059 216.8381083 129.178694 219.43230802 126.56152344 222.24780273 C126.10455078 222.76407227 125.64757812 223.2803418 125.17675781 223.81225586 C121.1582002 228.18752316 115.59225578 232.85848319 109.48095703 233.37817383 C95.58122971 233.77339268 83.66623601 233.60870902 70.74902344 228.18530273 C69.25956848 227.57821685 67.76997983 226.97145889 66.28027344 226.36499023 C64.07128122 225.4612902 61.86893144 224.5500148 59.68066406 223.59716797 C59.02259766 223.31301025 58.36453125 223.02885254 57.68652344 222.73608398 C57.11804688 222.48511963 56.54957031 222.23415527 55.96386719 221.97558594 C49.26849841 219.58659688 42.9996358 218.83461504 35.94824219 218.58764648 C35.03122025 218.54845596 34.1141983 218.50926544 33.16938782 218.46888733 C30.25869148 218.34575551 27.34770917 218.23370275 24.43652344 218.12280273 C20.6069331 217.96908222 16.77755025 217.81073548 12.94824219 217.65014648 C12.03683472 217.61253204 11.12542725 217.5749176 10.18640137 217.53616333 C4.716942 217.30097935 -0.71900454 216.94595332 -6.16674805 216.39257812 C-18.38303107 215.17767543 -31.3134281 215.9242166 -41.43457031 223.52905273 C-44.98931055 226.77036426 -46.97545534 229.59540325 -47.50488281 234.57202148 C-47.34701738 240.6359113 -45.43957313 244.22789644 -41.20410156 248.49780273 C-31.96984683 256.47619882 -21.30325772 256.48038801 -9.62207031 256.52905273 C-8.28574133 256.54200468 -6.94942191 256.55597663 -5.6131134 256.57089233 C-2.7767234 256.60137083 0.05964744 256.6269398 2.89611816 256.64862061 C10.35393023 256.70747533 17.81123226 256.80960886 25.26855469 256.91186523 C26.01498104 256.92191715 26.76140739 256.93196907 27.53045273 256.94232559 C40.53762072 257.12025702 53.53620187 257.4247037 66.53488159 257.94238281 C68.47021575 258.01937456 70.40570349 258.09262263 72.34133911 258.16162109 C119.78936147 259.88220414 119.78936147 259.88220414 129.74902344 270.18530273 C131.29926808 273.28579202 131.03894359 275.76424491 130.74902344 279.18530273 C128.74570469 282.79127647 127.45554599 283.94354605 123.53949451 285.28353387 C113.05313568 287.77828233 101.84082039 287.33416559 91.10961914 287.33247375 C89.82358984 287.33615044 88.53756054 287.33982713 87.21256065 287.34361523 C83.69127093 287.35348759 80.16999822 287.35732757 76.64869666 287.36000454 C72.83283269 287.36395124 69.01698166 287.3735247 65.2011261 287.38221741 C56.02077559 287.40184078 46.8404242 287.41202138 37.66005802 287.4209452 C34.1982147 287.42446067 30.73637227 287.42860623 27.2745297 287.43278486 C11.99946991 287.45122226 -3.2755899 287.4669783 -18.55065918 287.47468281 C-22.27579754 287.47659236 -26.00093589 287.47851277 -29.72607422 287.48046875 C-30.65181795 287.48095249 -31.57756167 287.48143623 -32.53135824 287.48193463 C-47.56362082 287.49025435 -62.59580434 287.51563653 -77.62803233 287.54804943 C-93.08372219 287.58110295 -108.53937176 287.59912926 -123.99509716 287.60232705 C-132.66445535 287.60449169 -141.33369757 287.61323584 -150.00302124 287.63878822 C-157.37548934 287.66047027 -164.74781316 287.66855725 -172.12030953 287.65882144 C-175.88028859 287.65427201 -179.63996973 287.65620078 -183.39990807 287.67558289 C-187.47596296 287.69641385 -191.55135486 287.68624673 -195.62744141 287.67304993 C-197.4083091 287.6895038 -197.4083091 287.6895038 -199.22515392 287.70629007 C-205.79714982 287.65478858 -209.92288739 287.14231633 -215.25097656 283.18530273 C-217.4337084 280.79793979 -218.18786008 279.26814484 -218.37597656 276.04077148 C-218.1547065 271.87121369 -217.59676289 269.64964437 -215.06347656 266.24780273 C-209.58521778 262.23041296 -203.38164596 261.60533214 -196.81347656 260.74780273 C-195.40545776 260.55831055 -195.40545776 260.55831055 -193.96899414 260.36499023 C-186.15103237 259.34981738 -178.31347023 258.59461765 -170.46417236 257.87207031 C-143.50646365 256.87776494 -143.50646365 256.87776494 -121.25097656 244.18530273 C-122.69370719 238.68619905 -126.55418722 235.7233708 -130.62597656 232.06030273 C-131.29886719 231.44026367 -131.97175781 230.82022461 -132.66503906 230.18139648 C-136.43365594 226.72955094 -136.43365594 226.72955094 -140.47607422 223.61157227 C-141.06179199 223.14090332 -141.64750977 222.67023438 -142.25097656 222.18530273 C-142.25097656 221.52530273 -142.25097656 220.86530273 -142.25097656 220.18530273 C-144.8868032 218.85048367 -147.54117597 217.58511727 -150.23535156 216.37280273 C-169.99005019 207.35829993 -186.39464102 199.08512642 -195.25097656 178.18530273 C-195.92687803 176.18840473 -196.59478136 174.18876282 -197.25097656 172.18530273 C-198.70165527 172.20886841 -198.70165527 172.20886841 -200.18164062 172.23291016 C-203.8270611 172.28789512 -207.47244629 172.32189749 -211.11816406 172.35009766 C-212.6852844 172.36503026 -214.2523641 172.38538389 -215.81933594 172.41162109 C-236.13584498 172.74286852 -236.13584498 172.74286852 -245.25097656 168.18530273 C-245.25097656 167.52530273 -245.25097656 166.86530273 -245.25097656 166.18530273 C-245.86972656 165.91717773 -246.48847656 165.64905273 -247.12597656 165.37280273 C-249.25097656 164.18530273 -249.25097656 164.18530273 -251.25097656 161.18530273 C-252.19274176 155.5799887 -252.10925229 150.59994085 -248.75097656 145.87280273 C-242.69565256 138.95445359 -234.53752127 132.78149342 -225.10559082 132.00976562 C-219.79586305 131.83851056 -214.48408442 131.95099742 -209.17321777 132.02786255 C-190.64053516 132.23359631 -176.38299976 130.57477106 -159.62280273 122.26928711 C-142.15158702 114.28450093 -116.79950805 117.38957277 -99.16308594 123.42944336 C-92.8223285 125.9359532 -87.00126534 129.55994882 -81.25097656 133.18530273 C-80.25453125 133.81049805 -79.25808594 134.43569336 -78.23144531 135.07983398 C-71.89028881 139.29142668 -66.2929473 144.04626329 -63.25097656 151.18530273 C-62.79732696 155.87301531 -62.73164737 158.16661855 -64.87597656 162.37280273 C-69.93500203 168.36375395 -73.25854511 170.76920789 -81.01660156 171.91577148 C-87.09486893 172.42229377 -93.15616958 172.33335473 -99.25097656 172.18530273 C-99.53328125 172.85174805 -99.81558594 173.51819336 -100.10644531 174.20483398 C-105.81243297 186.16900165 -116.56671062 194.27550027 -128.25097656 200.18530273 C-129.24097656 200.51530273 -130.23097656 200.84530273 -131.25097656 201.18530273 C-131.25097656 202.50530273 -131.25097656 203.82530273 -131.25097656 205.18530273 C-130.59097656 205.18530273 -129.93097656 205.18530273 -129.25097656 205.18530273 C-127.80566406 206.72436523 -127.80566406 206.72436523 -126.12597656 208.81030273 C-121.98604893 213.68640996 -117.40654458 218.13344673 -111.25097656 220.18530273 C-110.59097656 218.86530273 -109.93097656 217.54530273 -109.25097656 216.18530273 C-108.59097656 216.18530273 -107.93097656 216.18530273 -107.25097656 216.18530273 C-107.25097656 215.52530273 -107.25097656 214.86530273 -107.25097656 214.18530273 C-106.59097656 214.18530273 -105.93097656 214.18530273 -105.25097656 214.18530273 C-105.25097656 213.52530273 -105.25097656 212.86530273 -105.25097656 212.18530273 C-104.59097656 212.18530273 -103.93097656 212.18530273 -103.25097656 212.18530273 C-103.01765625 211.59362305 -102.78433594 211.00194336 -102.54394531 210.39233398 C-95.54447165 198.44459194 -71.90158832 192.7465726 -59.25097656 189.18530273 C-58.43435547 188.94303955 -57.61773437 188.70077637 -56.77636719 188.45117188 C-49.66560506 186.40122823 -42.57083776 185.16665618 -35.25097656 184.12280273 C-19.03746139 182.01749007 -19.03746139 182.01749007 -3.37597656 177.56030273 C-2.36905762 177.17769287 -2.36905762 177.17769287 -1.34179688 176.78735352 C6.28159292 173.76068412 14.15628423 169.79060397 19.98339844 163.94311523 C21.74902344 162.18530273 21.74902344 162.18530273 23.74902344 162.18530273 C24.05839844 161.56655273 24.36777344 160.94780273 24.68652344 160.31030273 C25.37402344 158.93530273 26.06152344 157.56030273 26.74902344 156.18530273 C21.52026442 154.22700325 16.31866312 152.30583905 10.93652344 150.81030273 C1.03494736 147.90920401 -8.40779576 143.47249549 -17.25097656 138.18530273 C-17.25097656 137.52530273 -17.25097656 136.86530273 -17.25097656 136.18530273 C-17.96898437 135.9597168 -18.68699219 135.73413086 -19.42675781 135.50170898 C-22.86266436 133.90018684 -24.83220559 131.86313303 -27.43847656 129.12280273 C-30.51842493 125.7162546 -30.51842493 125.7162546 -34.25097656 123.18530273 C-34.25097656 122.52530273 -34.25097656 121.86530273 -34.25097656 121.18530273 C-34.91097656 121.18530273 -35.57097656 121.18530273 -36.25097656 121.18530273 C-37.94238281 119.06811523 -37.94238281 119.06811523 -39.81347656 116.31030273 C-40.43351563 115.40538086 -41.05355469 114.50045898 -41.69238281 113.56811523 C-43.25097656 111.18530273 -43.25097656 111.18530273 -44.25097656 109.18530273 C-48.62534718 109.7370764 -52.81278664 110.51168766 -57.09545898 111.59448242 C-86.20174451 118.94150235 -117.91048765 119.30823129 -145.07128906 105.24389648 C-152.94974639 100.14322448 -158.12703149 91.9452213 -160.43847656 82.93530273 C-162.52817065 72.25464408 -161.08603474 63.62514599 -155.48535156 54.22045898 C-148.61404994 44.14345168 -140.92733876 40.19212223 -129.25097656 37.18530273 C-123.74565056 36.39996283 -118.23507682 35.9916576 -112.68847656 35.62280273 C-103.258964 34.97391973 -94.28495577 34.20158962 -85.25097656 31.18530273 C-84.53611084 30.95174072 -83.82124512 30.71817871 -83.0847168 30.47753906 C-81.12463552 29.81155179 -79.18678524 29.10615014 -77.25097656 28.37280273 C-76.56946533 28.11490967 -75.8879541 27.8570166 -75.18579102 27.59130859 C-67.26915189 24.51702151 -60.15953993 20.45327595 -53.06347656 15.81030273 C-35.81443376 4.67390495 -20.52075361 -0.00223343 0 0 Z M-24.25097656 107.18530273 C-18.25316765 118.73057313 -3.34680876 125.32773551 7.74902344 131.18530273 C9.41578125 132.08829102 9.41578125 132.08829102 11.11621094 133.00952148 C16.97139145 136.08609852 22.21786216 138.09677586 28.74902344 139.18530273 C28.13450845 134.38764359 26.75039503 130.14121559 24.93652344 125.68530273 C24.68837891 125.0472168 24.44023437 124.40913086 24.18457031 123.75170898 C22.47913101 119.50763866 20.52476705 115.83374465 17.74902344 112.18530273 C17.08902344 112.18530273 16.42902344 112.18530273 15.74902344 112.18530273 C15.08902344 110.86530273 14.42902344 109.54530273 13.74902344 108.18530273 C1.07585618 107.56427955 -11.56052464 107.00486977 -24.25097656 107.18530273 Z M73.11816406 106.67163086 C69.24293309 107.26246318 65.41771716 107.41273637 61.50683594 107.50170898 C60.73846405 107.52249008 59.97009216 107.54327118 59.17843628 107.56468201 C56.74371576 107.62963742 54.30889496 107.68880911 51.87402344 107.74780273 C50.21515924 107.79103943 48.55630488 107.8346553 46.89746094 107.87866211 C42.84808239 107.98526277 38.79860381 108.08667944 34.74902344 108.18530273 C35.29534424 109.20793213 35.84166504 110.23056152 36.40454102 111.28417969 C37.13006219 112.64313891 37.85556582 114.00210751 38.58105469 115.36108398 C38.94009888 116.0330481 39.29914307 116.70501221 39.66906738 117.39733887 C44.52288161 126.49164946 48.88637653 135.61908783 52.74902344 145.18530273 C54.77725252 143.88515588 56.7651527 142.55124652 58.74902344 141.18530273 C59.46058594 140.71092773 60.17214844 140.23655273 60.90527344 139.74780273 C67.32001862 135.17839521 70.86483458 129.95701808 74.74902344 123.18530273 C75.83183046 121.43497703 76.91514007 119.68496212 77.99902344 117.93530273 C80.27989969 114.11757938 82.12942136 110.32428582 83.74902344 106.18530273 C82.55277344 106.16467773 81.35652344 106.14405273 80.12402344 106.12280273 C79.45113281 106.11120117 78.77824219 106.09959961 78.08496094 106.08764648 C75.68667849 106.13309679 75.68667849 106.13309679 73.11816406 106.67163086 Z M-178.25097656 170.18530273 C-175.64767618 176.45595224 -175.64767618 176.45595224 -172.25097656 182.18530273 C-171.59097656 182.18530273 -170.93097656 182.18530273 -170.25097656 182.18530273 C-170.25097656 182.84530273 -170.25097656 183.50530273 -170.25097656 184.18530273 C-168.37390616 185.74615518 -168.37390616 185.74615518 -166.00097656 187.24780273 C-165.21207031 187.7750293 -164.42316406 188.30225586 -163.61035156 188.84545898 C-161.09213213 190.41496482 -161.09213213 190.41496482 -157.25097656 191.18530273 C-156.92097656 184.58530273 -156.59097656 177.98530273 -156.25097656 171.18530273 C-163.51097656 170.85530273 -170.77097656 170.52530273 -178.25097656 170.18530273 Z M-140.25097656 171.18530273 C-142.03794331 177.07178144 -142.48129883 181.13621827 -141.25097656 187.18530273 C-140.59097656 188.17530273 -139.93097656 189.16530273 -139.25097656 190.18530273 C-136.87102322 188.96504676 -134.49734208 187.73455423 -132.12597656 186.49780273 C-131.46082031 186.15813477 -130.79566406 185.8184668 -130.11035156 185.46850586 C-125.66565137 183.13721703 -121.91819752 180.62974859 -118.25097656 177.18530273 C-118.25097656 176.52530273 -118.25097656 175.86530273 -118.25097656 175.18530273 C-117.59097656 175.18530273 -116.93097656 175.18530273 -116.25097656 175.18530273 C-115.59097656 173.53530273 -114.93097656 171.88530273 -114.25097656 170.18530273 C-122.98237121 170.06905636 -131.56224639 170.29415092 -140.25097656 171.18530273 Z " fill="#2F633E" transform="translate(251.2509765625,-0.185302734375)"/>
<path d="M0 0 C0 0.66 0 1.32 0 2 C1.65 2.33 3.3 2.66 5 3 C4.67 3.66 4.34 4.32 4 5 C2.35 4.34 0.7 3.68 -1 3 C-1 3.99 -1 4.98 -1 6 C-0.34 6 0.32 6 1 6 C1 7.32 1 8.64 1 10 C1.99 10.495 1.99 10.495 3 11 C3 11.66 3 12.32 3 13 C2.34 13 1.68 13 1 13 C1 13.66 1 14.32 1 15 C-0.6796875 16.5078125 -0.6796875 16.5078125 -2.875 18.125 C-3.95394531 18.93324219 -3.95394531 18.93324219 -5.0546875 19.7578125 C-7 21 -7 21 -9 21 C-9 21.66 -9 22.32 -9 23 C-10.69810754 24.37898043 -12.46035459 25.67959478 -14.25 26.9375 C-15.22453125 27.62714844 -16.1990625 28.31679687 -17.203125 29.02734375 C-18.12609375 29.67832031 -19.0490625 30.32929688 -20 31 C-20.67675781 31.52464844 -21.35351562 32.04929688 -22.05078125 32.58984375 C-24.25604731 34.18523663 -26.50582817 35.40354389 -28.9375 36.625 C-30.18853516 37.26308594 -30.18853516 37.26308594 -31.46484375 37.9140625 C-33.98610897 38.99404976 -36.29927965 39.56517919 -39 40 C-39 38.68 -39 37.36 -39 36 C-36.55078125 34 -36.55078125 34 -33.3125 32 C-30.14586323 30.02036871 -27.13069031 28.10617436 -24.23046875 25.75 C-22 24 -22 24 -20 24 C-20 23.34 -20 22.68 -20 22 C-19.34 22 -18.68 22 -18 22 C-18.495 21.01 -18.495 21.01 -19 20 C-20.65 20.33 -22.3 20.66 -24 21 C-24 21.66 -24 22.32 -24 23 C-26.62291338 25.12149278 -29.56742747 26.79612755 -32.4375 28.5625 C-33.22060547 29.06974609 -34.00371094 29.57699219 -34.81054688 30.09960938 C-40.32467037 33.50792768 -44.5174465 34.73394926 -51 35 C-45.35475578 29.19794344 -45.35475578 29.19794344 -42 27 C-41.34 27 -40.68 27 -40 27 C-40.495 24.525 -40.495 24.525 -41 22 C-41.9178125 22.5053125 -42.835625 23.010625 -43.78125 23.53125 C-55.87157938 29.99797889 -55.87157938 29.99797889 -63 29 C-62.3125 26.125 -62.3125 26.125 -61 23 C-58.4375 21.8125 -58.4375 21.8125 -56 21 C-55.67 20.01 -55.34 19.02 -55 18 C-52.9375 16.3125 -52.9375 16.3125 -51 15 C-53.15424056 13.60264182 -53.15424056 13.60264182 -56 13 C-60.84858529 15.42429264 -63.75229062 18.79708198 -67 23 C-67.99 22.67 -68.98 22.34 -70 22 C-70 19 -70 19 -68.1640625 16.94921875 C-47.98389506 -1.02665347 -25.92591646 -3.82569518 0 0 Z " fill="#366A41" transform="translate(372,167)"/>
<path d="M0 0 C-4.75 4 -4.75 4 -7 4 C-7.495 3.505 -7.495 3.505 -8 3 C-9.32 3.99 -10.64 4.98 -12 6 C-9.69 6.99 -7.38 7.98 -5 9 C-6.48622429 12.88966129 -8.54122412 14.26520601 -12.0625 16.375 C-15.63886218 18.55718709 -19.16738342 20.75894139 -22.625 23.125 C-34.39516129 31 -34.39516129 31 -39 31 C-39 31.66 -39 32.32 -39 33 C-43.53701494 34.45184478 -47.18061476 35.23509196 -52 35 C-51 32 -51 32 -48.625 30.75 C-48.09648438 30.51152344 -47.56796875 30.27304688 -47.0234375 30.02734375 C-43.2974857 28.13559602 -39.87483242 25.72478696 -36.390625 23.42578125 C-34 22 -34 22 -32 22 C-31.34 20.68 -30.68 19.36 -30 18 C-29.34 18 -28.68 18 -28 18 C-28 17.34 -28 16.68 -28 16 C-32.4251827 17.67173569 -36.17613348 19.69919449 -40.125 22.3125 C-48.22025916 27.56438301 -56.31256119 31.95336716 -66 33 C-66 32.34 -66 31.68 -66 31 C-64.36816893 29.94410931 -62.69207001 28.9563874 -61 28 C-59.948125 27.278125 -58.89625 26.55625 -57.8125 25.8125 C-55 24 -55 24 -53 24 C-53 23.34 -53 22.68 -53 22 C-51.5 20.375 -51.5 20.375 -50 19 C-53.88871684 19 -54.82293056 19.21289844 -58 21 C-61.17706944 22.78710156 -62.11128316 23 -66 23 C-66 23.66 -66 24.32 -66 25 C-79.6332574 28.44419134 -79.6332574 28.44419134 -86 28 C-84.64048144 25.28096288 -83.10259234 24.91875226 -80.375 23.625 C-77.17534818 22.08018243 -74.05642409 20.49943074 -71 18.6875 C-68 17 -68 17 -66 17 C-66 16.34 -66 15.68 -66 15 C-64.87980469 14.44570312 -63.75960937 13.89140625 -62.60546875 13.3203125 C-61.13275962 12.58864809 -59.66010628 11.85687139 -58.1875 11.125 C-57.44951172 10.76019531 -56.71152344 10.39539063 -55.95117188 10.01953125 C-55.23896484 9.66503906 -54.52675781 9.31054688 -53.79296875 8.9453125 C-53.1383667 8.62062988 -52.48376465 8.29594727 -51.80932617 7.96142578 C-48.70902449 6.3140114 -46.49048296 4.5827626 -44.3125 1.875 C-43.549375 0.92625 -42.78625 -0.0225 -42 -1 C-44.31 -1 -46.62 -1 -49 -1 C-37.04033644 -8.97310904 -13.12834679 -3.341761 0 0 Z " fill="#386C44" transform="translate(148,122)"/>
<path d="M0 0 C3.37247653 1.33493863 6.7040176 2.6713481 10 4.1875 C9.42188317 7.38396834 8.55859318 8.99381566 6.234375 11.24609375 C5.39326172 12.07270508 5.39326172 12.07270508 4.53515625 12.91601562 C3.94605469 13.47998047 3.35695313 14.04394531 2.75 14.625 C2.17636719 15.18509766 1.60273438 15.74519531 1.01171875 16.32226562 C-0.12345435 17.43028766 -1.26257269 18.53428339 -2.40576172 19.6340332 C-3.82871171 21.02059229 -5.21045506 22.44915255 -6.5859375 23.8828125 C-9.04477984 26.23025098 -11.4621665 27.8848115 -14.375 29.625 C-17.60456765 31.61771196 -20.58238922 33.55579808 -23.375 36.125 C-27.4571987 39.82077698 -32.19578847 42.46719437 -36.9140625 45.2578125 C-39.96049851 47.0689056 -39.96049851 47.0689056 -42.3359375 49.1171875 C-45.98117549 51.94999708 -49.94568971 53.99894065 -54 56.1875 C-55.56544788 57.06739079 -57.1292444 57.9502258 -58.69140625 58.8359375 C-67.98126988 64.05186296 -77.26434406 68.85546102 -87.10546875 72.9453125 C-89.8453898 73.90924412 -89.8453898 73.90924412 -91 75.1875 C-93.07473748 75.58896756 -95.16057103 75.93377476 -97.25 76.25 C-98.38953125 76.42660156 -99.5290625 76.60320312 -100.703125 76.78515625 C-103.51890262 77.12878788 -106.16973183 77.26730079 -109 77.1875 C-106.27582559 74.46332559 -102.9945931 73.1468543 -99.5625 71.5 C-93.61337546 68.59453634 -88.03839455 65.42919848 -82.51171875 61.76953125 C-80.04606591 60.21651508 -77.56694782 58.93903563 -74.9375 57.6875 C-70.44455848 55.52265456 -66.53904749 52.86273856 -62.50390625 49.9453125 C-59.26048643 47.66834071 -55.88194442 45.67853693 -52.46484375 43.67578125 C-49.15562654 41.67766436 -45.98394378 39.49774656 -42.8125 37.2890625 C-41 36.1875 -41 36.1875 -39 36.1875 C-39 35.5275 -39 34.8675 -39 34.1875 C-38.34 34.1875 -37.68 34.1875 -37 34.1875 C-37 33.5275 -37 32.8675 -37 32.1875 C-35.31550252 31.01631699 -33.57504001 29.92507338 -31.8125 28.875 C-25.54722327 24.98924653 -21.17793282 20.44764952 -16.46484375 14.87109375 C-14.4254687 12.52717202 -12.19655374 10.38405374 -10 8.1875 C-9.4534375 7.48753906 -8.906875 6.78757812 -8.34375 6.06640625 C-3.73393345 0.23337084 -3.73393345 0.23337084 0 0 Z " fill="#417548" transform="translate(295,15.8125)"/>
<path d="M0 0 C1.18851562 0.00902344 2.37703125 0.01804687 3.6015625 0.02734375 C4.51679688 0.03894531 5.43203125 0.05054688 6.375 0.0625 C5.0627964 2.92435356 3.61051413 5.10827974 1.5 7.4375 C-0.50473729 9.70138626 -2.26540583 11.94038221 -3.875 14.5 C-4.74125 15.7684375 -4.74125 15.7684375 -5.625 17.0625 C-6.285 17.0625 -6.945 17.0625 -7.625 17.0625 C-7.625 17.7225 -7.625 18.3825 -7.625 19.0625 C-9.09375 20.54296875 -9.09375 20.54296875 -11.125 22.25 C-11.85976562 22.87261719 -12.59453125 23.49523437 -13.3515625 24.13671875 C-14.10179687 24.77222656 -14.85203125 25.40773438 -15.625 26.0625 C-16.91720348 27.22857206 -18.20888311 28.39522494 -19.5 29.5625 C-23.1481703 32.75553794 -27.00093679 35.5204257 -31.00390625 38.25 C-33.68139464 40.10149719 -36.27323313 42.04389921 -38.875 44 C-45.15449349 48.5709076 -51.79112952 52.3987472 -58.625 56.0625 C-59.28757813 56.41908691 -59.95015625 56.77567383 -60.6328125 57.14306641 C-79.81841805 67.36961423 -79.81841805 67.36961423 -90.625 67.0625 C-88.42702597 64.86452597 -87.44953855 64.60352483 -84.5 63.9375 C-83.22125 63.64875 -81.9425 63.36 -80.625 63.0625 C-80.625 62.4025 -80.625 61.7425 -80.625 61.0625 C-78.71875 59.765625 -78.71875 59.765625 -76.125 58.3125 C-71.33235144 55.52967181 -67.00937556 52.43632076 -62.625 49.0625 C-60.67261198 47.59621675 -58.71401911 46.13816691 -56.75 44.6875 C-55.82445312 43.99914063 -54.89890625 43.31078125 -53.9453125 42.6015625 C-51.625 41.0625 -51.625 41.0625 -49.625 41.0625 C-49.29048828 40.19044922 -49.29048828 40.19044922 -48.94921875 39.30078125 C-47.23318118 36.40022217 -45.22120788 35.13524217 -42.4375 33.25 C-38.35243661 30.37984507 -34.86759937 27.4771321 -31.453125 23.85546875 C-28.46452798 20.92434475 -25.10359685 18.46983699 -21.76171875 15.95703125 C-19.64405341 14.07939379 -18.66847442 12.66253846 -17.625 10.0625 C-16.965 10.0625 -16.305 10.0625 -15.625 10.0625 C-15.398125 9.505625 -15.17125 8.94875 -14.9375 8.375 C-11.10971245 1.63080289 -7.37592388 -0.07231298 0 0 Z " fill="#417649" transform="translate(260.625,10.9375)"/>
<path d="M0 0 C0.81210937 0.29003906 1.62421875 0.58007812 2.4609375 0.87890625 C3.27820313 1.16636719 4.09546875 1.45382813 4.9375 1.75 C5.56398438 1.97816406 6.19046875 2.20632812 6.8359375 2.44140625 C7.3309375 4.91640625 7.3309375 4.91640625 7.8359375 7.44140625 C7.23265625 7.88871094 6.629375 8.33601563 6.0078125 8.796875 C0.98221655 12.5651253 0.98221655 12.5651253 -3.2890625 17.12890625 C-5.29218924 19.59942923 -7.25806007 20.68320282 -10.04296875 22.14453125 C-12.80770729 23.83494229 -15.182986 25.85852721 -17.6640625 27.94140625 C-21.70192683 31.31642007 -25.52775428 33.98689013 -30.1640625 36.44140625 C-31.2159375 37.16328125 -32.2678125 37.88515625 -33.3515625 38.62890625 C-35.77230461 40.18894005 -37.36308741 41.010487 -40.1640625 41.44140625 C-40.1640625 42.10140625 -40.1640625 42.76140625 -40.1640625 43.44140625 C-40.90011719 43.83972656 -41.63617188 44.23804688 -42.39453125 44.6484375 C-43.37035156 45.17824219 -44.34617187 45.70804688 -45.3515625 46.25390625 C-46.79595703 47.03701172 -46.79595703 47.03701172 -48.26953125 47.8359375 C-51.71165113 49.7451295 -55.07116439 51.76521106 -58.41796875 53.8359375 C-79.64382505 66.87313858 -79.64382505 66.87313858 -92.1640625 66.44140625 C-92.1640625 65.78140625 -92.1640625 65.12140625 -92.1640625 64.44140625 C-86.4140625 61.44140625 -86.4140625 61.44140625 -84.1640625 61.44140625 C-84.1640625 60.78140625 -84.1640625 60.12140625 -84.1640625 59.44140625 C-82.28035246 58.11172857 -80.32810319 56.87871125 -78.3515625 55.69140625 C-77.46839355 55.15797607 -77.46839355 55.15797607 -76.56738281 54.61376953 C-72.90014748 52.41678552 -69.18206286 50.33669581 -65.4140625 48.31640625 C-59.49764665 45.1425855 -53.84974795 41.65709674 -48.6640625 37.37890625 C-43.93492272 33.71382292 -38.51471403 31.08639952 -33.1640625 28.44140625 C-33.1640625 27.78140625 -33.1640625 27.12140625 -33.1640625 26.44140625 C-31.31402802 25.10477847 -29.40688729 23.84671067 -27.4765625 22.62890625 C-23.17305816 19.9122863 -19.65420685 17.15044467 -16.1640625 13.44140625 C-14.86826603 12.07156427 -13.54413501 10.72630135 -12.1640625 9.44140625 C-11.5040625 9.44140625 -10.8440625 9.44140625 -10.1640625 9.44140625 C-9.761875 8.48234375 -9.761875 8.48234375 -9.3515625 7.50390625 C-8.1640625 5.44140625 -8.1640625 5.44140625 -5.1640625 4.44140625 C-4.7919583 3.11836908 -4.45776077 1.7840269 -4.1640625 0.44140625 C-2.1640625 -0.55859375 -2.1640625 -0.55859375 0 0 Z " fill="#417549" transform="translate(310.1640625,24.55859375)"/>
<path d="M0 0 C1.89492188 0.19335938 1.89492188 0.19335938 3.828125 0.390625 C4.79234375 0.50921875 5.7565625 0.6278125 6.75 0.75 C6.75 1.74 6.75 2.73 6.75 3.75 C5.12064759 5.12868281 3.45250393 6.46274093 1.75 7.75 C1.42 8.41 1.09 9.07 0.75 9.75 C0.09 9.75 -0.57 9.75 -1.25 9.75 C-1.25 10.41 -1.25 11.07 -1.25 11.75 C-1.91 11.75 -2.57 11.75 -3.25 11.75 C-3.45625 12.28625 -3.6625 12.8225 -3.875 13.375 C-5.78250426 16.66978009 -8.29819384 19.34363628 -11.25 21.75 C-11.91 21.75 -12.57 21.75 -13.25 21.75 C-13.745 23.235 -13.745 23.235 -14.25 24.75 C-16.65625 26.80078125 -16.65625 26.80078125 -19.75 29.0625 C-20.29317871 29.46202881 -20.83635742 29.86155762 -21.39599609 30.27319336 C-25.19507671 33.04729388 -29.08591556 35.65218799 -33.03125 38.2109375 C-35.59779336 39.99125103 -37.96980034 41.94524124 -40.375 43.9375 C-44.1871244 47.05063703 -47.70098404 48.84768424 -52.25 50.75 C-54.54009834 52.39243652 -56.72191714 54.14042997 -58.91796875 55.90625 C-64.38579315 60.22922004 -69.53251846 63.74904805 -76.25 65.75 C-77.36375 66.3275 -78.4775 66.905 -79.625 67.5 C-83.80757601 69.64011185 -88.12249537 71.36893384 -92.5 73.0625 C-93.54679932 73.48063965 -93.54679932 73.48063965 -94.61474609 73.90722656 C-100.82045201 76.26147605 -100.82045201 76.26147605 -104.25 74.75 C-103.45335937 74.43546875 -102.65671875 74.1209375 -101.8359375 73.796875 C-96.20975532 71.52449971 -91.18967682 69.25977038 -86.25 65.75 C-85.59 65.75 -84.93 65.75 -84.25 65.75 C-84.25 65.09 -84.25 64.43 -84.25 63.75 C-82.54362874 62.65780138 -80.78095086 61.65332335 -79 60.6875 C-73.23718137 57.44506304 -68.21015098 53.80626407 -63.0390625 49.66796875 C-60.25 47.75 -60.25 47.75 -56.9609375 46.67578125 C-56.06632812 46.37027344 -55.17171875 46.06476562 -54.25 45.75 C-53.92 44.76 -53.59 43.77 -53.25 42.75 C-51.27053408 41.38636792 -49.2680755 40.05581356 -47.25 38.75 C-45.89631404 37.43733482 -44.56200404 36.10432675 -43.25 34.75 C-38.58333333 30.75 -38.58333333 30.75 -36.25 30.75 C-36.25 30.09 -36.25 29.43 -36.25 28.75 C-34.6 28.09 -32.95 27.43 -31.25 26.75 C-31.25 26.09 -31.25 25.43 -31.25 24.75 C-29.84896308 23.5881645 -28.44437181 22.4303833 -27.0234375 21.29296875 C-23.74614181 18.44157713 -21.05215485 15.05776105 -18.25 11.75 C-17.02388337 10.33069272 -15.79477855 8.91396065 -14.5625 7.5 C-13.75232422 6.56414063 -13.75232422 6.56414063 -12.92578125 5.609375 C-12.09626953 4.68898438 -12.09626953 4.68898438 -11.25 3.75 C-10.67121094 3.0075 -10.09242188 2.265 -9.49609375 1.5 C-6.24174054 -1.03556563 -4.02263286 -0.44695921 0 0 Z " fill="#417548" transform="translate(280.25,12.25)"/>
<path d="M0 0 C3.48539917 0.64544429 6.02819057 2.10134397 9 4 C8.82701599 6.33528415 8.29774631 7.69177582 6.66796875 9.37890625 C2.42788462 13 2.42788462 13 0 13 C0 13.66 0 14.32 0 15 C-1.56958008 16.40112305 -1.56958008 16.40112305 -3.76953125 18.01171875 C-4.57084473 18.60146484 -5.3721582 19.19121094 -6.19775391 19.79882812 C-7.06062012 20.42208984 -7.92348633 21.04535156 -8.8125 21.6875 C-9.68310059 22.32236328 -10.55370117 22.95722656 -11.45068359 23.61132812 C-16.75358739 27.45255306 -22.09531535 31.13950453 -27.67578125 34.56640625 C-29.93710208 35.96120414 -32.12260568 37.43369279 -34.3125 38.9375 C-38.59931051 41.81829779 -43.05105585 44.3819902 -47.56787109 46.88061523 C-50.59176457 48.56554064 -53.4205393 50.29513297 -56.26171875 52.2890625 C-64.87707288 58.28695972 -70.77611881 59.01814584 -81 58 C-81 57.34 -81 56.68 -81 56 C-78.9375 54.58984375 -78.9375 54.58984375 -76 52.9375 C-74.90300781 52.31359375 -73.80601562 51.6896875 -72.67578125 51.046875 C-70.17891032 49.65094932 -67.67436214 48.26936272 -65.16796875 46.890625 C-53.24729695 40.30897549 -41.63262645 33.2828861 -31.125 24.5703125 C-29 23 -29 23 -25.65625 21.140625 C-21.88847309 19.03279884 -18.73949214 16.46132924 -15.5 13.625 C-14.93756592 13.14184326 -14.37513184 12.65868652 -13.7956543 12.16088867 C-11.40761407 10.10675325 -9.03773773 8.03329799 -6.67578125 5.94921875 C-2.1798926 2 -2.1798926 2 0 2 C0 1.34 0 0.68 0 0 Z " fill="#417549" transform="translate(321,33)"/>
<path d="M0 0 C-0.58007812 0.37511719 -1.16015625 0.75023437 -1.7578125 1.13671875 C-10.56558752 6.90682879 -17.95663642 11.96910594 -20.671875 22.640625 C-21.95431726 31.61772082 -19.27537209 39.14488101 -14.0625 46.4375 C-11.64816612 49.40852239 -9.15013092 51.79490835 -6 54 C-5.13375 54.66 -4.2675 55.32 -3.375 56 C1.18535728 58.70243394 5.98716553 60.32310875 11 62 C11 62.66 11 63.32 11 64 C-0.40055814 62.88775043 -11.72812701 61.47833226 -22 56 C-22 55.34 -22 54.68 -22 54 C-22.556875 53.773125 -23.11375 53.54625 -23.6875 53.3125 C-28.1514709 50.7788949 -31.64920422 47.19798366 -33.48828125 42.33984375 C-35.43244247 33.45012947 -34.93749105 24.96338534 -30.38671875 17.05078125 C-27.56865201 12.88321776 -25.42828574 10.49800734 -21 8 C-20.34 7.34 -19.68 6.68 -19 6 C-18.01 6 -17.02 6 -16 6 C-16 5.34 -16 4.68 -16 4 C-3.60854893 -1.80427447 -3.60854893 -1.80427447 0 0 Z " fill="#417548" transform="translate(212,205)"/>
<path d="M0 0 C1.175625 0.4021875 1.175625 0.4021875 2.375 0.8125 C3.365 1.1425 4.355 1.4725 5.375 1.8125 C4.715 3.1325 4.055 4.4525 3.375 5.8125 C2.715 5.8125 2.055 5.8125 1.375 5.8125 C1.1584375 6.37066406 0.941875 6.92882813 0.71875 7.50390625 C-1.05196467 10.54603524 -3.44594267 12.53814956 -6.125 14.75 C-6.68888428 15.22018555 -7.25276855 15.69037109 -7.83374023 16.17480469 C-33.88837673 37.56695891 -33.88837673 37.56695891 -46.625 41.8125 C-46.625 42.4725 -46.625 43.1325 -46.625 43.8125 C-55.43074602 48.91879059 -62.13881756 52.02244413 -72.625 50.8125 C-72.625 49.8225 -72.625 48.8325 -72.625 47.8125 C-70.75390625 46.41796875 -70.75390625 46.41796875 -68.1875 45 C-63.92378306 42.57565176 -59.8588578 39.99931371 -55.828125 37.20703125 C-53.625 35.8125 -53.625 35.8125 -50.7421875 34.38671875 C-47.47765442 32.73808864 -44.52988184 30.85825142 -41.5 28.8125 C-40.48679687 28.131875 -39.47359375 27.45125 -38.4296875 26.75 C-36.71545086 25.56579196 -35.02526535 24.34441442 -33.3828125 23.0625 C-31.625 21.8125 -31.625 21.8125 -29.625 21.8125 C-29.625 21.1525 -29.625 20.4925 -29.625 19.8125 C-27.87264922 18.72556077 -26.0699255 17.71955729 -24.25 16.75 C-18.80877525 13.6792734 -14.39259808 10.22562642 -9.87890625 5.92578125 C-3.30687952 -0.23620568 -3.30687952 -0.23620568 0 0 Z " fill="#417548" transform="translate(336.625,41.1875)"/>
<path d="M0 0 C0 0.66 0 1.32 0 2 C2.475 2.495 2.475 2.495 5 3 C5 7 5 7 3.85546875 8.640625 C-0.55770724 12.89877138 -5.26068733 16.50771184 -10.26953125 20.04296875 C-12.61625513 21.72495539 -14.83503457 23.47888897 -17.0625 25.3125 C-25.35868764 31.84706522 -34.81398962 37.07666509 -43.9921875 42.26953125 C-46.79535021 43.70858772 -46.79535021 43.70858772 -48 45 C-50.18639453 45.07258946 -52.37500389 45.08373783 -54.5625 45.0625 C-56.35880859 45.04896484 -56.35880859 45.04896484 -58.19140625 45.03515625 C-59.11824219 45.02355469 -60.04507812 45.01195312 -61 45 C-59.52191905 40.37571817 -55.69624419 38.68329326 -51.75 36.375 C-38.7519388 28.51033179 -24.42527815 19.60141637 -13.7578125 8.7109375 C-12 7 -12 7 -10 7 C-10 6.34 -10 5.68 -10 5 C-4.76190476 0 -4.76190476 0 0 0 Z " fill="#417548" transform="translate(351,46)"/>
<path d="M0 0 C1.65 0 3.3 0 5 0 C5 0.66 5 1.32 5 2 C5.99 2.33 6.98 2.66 8 3 C8.2578125 5.296875 8.2578125 5.296875 8 8 C6.3046875 9.703125 6.3046875 9.703125 3.875 11.25 C2.96234375 11.84296875 2.0496875 12.4359375 1.109375 13.046875 C-0.42976563 14.01367188 -0.42976563 14.01367188 -2 15 C-3.12129151 15.73208289 -4.24103914 16.46653494 -5.359375 17.203125 C-8.31022689 19.14126339 -11.29303973 21.02358754 -14.28466797 22.89794922 C-15.89583703 23.93307833 -17.46734212 25.0292168 -19.03515625 26.12890625 C-27.21064472 31.57556411 -33.4349985 31.82321734 -43 31 C-38.32776729 25.80302409 -32.68035787 22.11653364 -26.9375 18.1875 C-25.90850586 17.47916016 -24.87951172 16.77082031 -23.81933594 16.04101562 C-21.7920118 14.64759082 -19.762932 13.25671623 -17.73193359 11.86865234 C-15.45721536 10.31273694 -13.18972416 8.74729325 -10.92578125 7.17578125 C-9.87777344 6.45777344 -8.82976562 5.73976563 -7.75 5 C-6.87859375 4.401875 -6.0071875 3.80375 -5.109375 3.1875 C-3 2 -3 2 0 2 C0 1.34 0 0.68 0 0 Z " fill="#417549" transform="translate(375,61)"/>
<path d="M0 0 C0 0.66 0 1.32 0 2 C-0.52207031 2.21914063 -1.04414063 2.43828125 -1.58203125 2.6640625 C-7.09312129 5.03836749 -12.30649357 7.7591125 -17.51953125 10.73046875 C-21.24316215 12.63626409 -24.32481604 13.12490177 -28.484375 13.02734375 C-29.33773437 13.01509766 -30.19109375 13.00285156 -31.0703125 12.99023438 C-32.84123373 12.95538388 -34.61207891 12.91639569 -36.3828125 12.87304688 C-41.98477363 12.80155037 -46.62119638 13.42245045 -52 15 C-53.33194683 15.33883114 -54.66495577 15.67358646 -56 16 C-56 16.66 -56 17.32 -56 18 C-56.61875 18.061875 -57.2375 18.12375 -57.875 18.1875 C-60.25602845 18.82051688 -60.25602845 18.82051688 -61.1875 21.4375 C-61.455625 22.283125 -61.72375 23.12875 -62 24 C-62.33 24.66 -62.66 25.32 -63 26 C-63.66 26 -64.32 26 -65 26 C-65.12117188 26.99902344 -65.24234375 27.99804688 -65.3671875 29.02734375 C-65.61855469 30.96287109 -65.61855469 30.96287109 -65.875 32.9375 C-66.03742188 34.22527344 -66.19984375 35.51304688 -66.3671875 36.83984375 C-66.57601562 37.88269531 -66.78484375 38.92554688 -67 40 C-67.99 40.495 -67.99 40.495 -69 41 C-70.99809616 35.00571152 -70.84843301 28.30415468 -68.625 22.375 C-65.34708491 15.83096088 -58.79543013 9.77403088 -52 7 C-49.69880159 6.67140855 -47.38396012 6.43399104 -45.06640625 6.25390625 C-43.68033745 6.13738279 -42.29426978 6.02084587 -40.90820312 5.90429688 C-38.74995422 5.73293011 -36.59148754 5.56473646 -34.43286133 5.39819336 C-22.98200358 4.49881425 -11.14518359 0 0 0 Z " fill="#407549" transform="translate(174,42)"/>
<path d="M0 0 C2.9375 0.6875 2.9375 0.6875 4.9375 1.6875 C4.9375 2.6775 4.9375 3.6675 4.9375 4.6875 C3.20703125 6.16015625 3.20703125 6.16015625 0.75 7.75 C-3.51400592 10.6007235 -7.58942406 13.59128555 -11.625 16.75 C-25.70432011 27.6875 -25.70432011 27.6875 -29.0625 27.6875 C-29.0625 28.3475 -29.0625 29.0075 -29.0625 29.6875 C-45.01994681 39.21941489 -45.01994681 39.21941489 -54.0625 37.6875 C-51.07215635 34.50491997 -47.92215793 32.07571954 -44.3125 29.625 C-43.16523664 28.84393789 -42.01810784 28.06267812 -40.87109375 27.28125 C-40.26120605 26.86746094 -39.65131836 26.45367187 -39.02294922 26.02734375 C-36.91239806 24.58491476 -34.81671537 23.12250899 -32.72265625 21.65625 C-31.99981445 21.15230713 -31.27697266 20.64836426 -30.53222656 20.12915039 C-29.10882172 19.13666541 -27.68754505 18.14112032 -26.26855469 17.14233398 C-21.28805712 13.6875 -21.28805712 13.6875 -19.0625 13.6875 C-19.0625 13.0275 -19.0625 12.3675 -19.0625 11.6875 C-14.59191176 7.6875 -14.59191176 7.6875 -12.0625 7.6875 C-12.0625 7.0275 -12.0625 6.3675 -12.0625 5.6875 C-10.10359119 4.29449818 -8.0985882 2.96504554 -6.0625 1.6875 C-3.0625 -0.3125 -3.0625 -0.3125 0 0 Z " fill="#417549" transform="translate(365.0625,54.3125)"/>
<path d="M0 0 C-2.72789724 2.72789724 -5.7266655 2.96364851 -9.375 3.75 C-16.87055558 5.47935349 -23.26777897 8.24796598 -30 12 C-31.32974443 12.67379668 -32.66170123 13.34335808 -34 14 C-34 14.66 -34 15.32 -34 16 C-37.46153846 19 -37.46153846 19 -40 19 C-40 19.66 -40 20.32 -40 21 C-40.66 21 -41.32 21 -42 21 C-43.73599325 24.3421926 -45.18760892 27.77000055 -46.625 31.25 C-47.07101563 32.32765625 -47.51703125 33.4053125 -47.9765625 34.515625 C-48.31429687 35.33546875 -48.65203125 36.1553125 -49 37 C-51.61838421 34.38161579 -51.35821377 33.08933031 -51.4375 29.4375 C-51.28750664 22.061356 -49.10760072 17.47279548 -44.23828125 12.03125 C-39.41094559 7.40954121 -34.32334358 4.99102363 -28 3 C-26.64261719 2.55140625 -26.64261719 2.55140625 -25.2578125 2.09375 C-16.80993827 -0.37879855 -8.70819416 -0.29837721 0 0 Z " fill="#407549" transform="translate(212,197)"/>
<path d="M0 0 C0 0.99 0 1.98 0 3 C-5.75 6 -5.75 6 -8 6 C-8 6.66 -8 7.32 -8 8 C-9.62449243 9.70779973 -11.29220027 11.37550757 -13 13 C-14.30880966 14.08968674 -14.30880966 14.08968674 -14.1875 16.75 C-14.00187851 19.96743924 -13.36114502 22.10756683 -12 25 C-18.13197401 25.20786353 -21.87481617 24.68928856 -27.3125 21.75 C-29 20 -29 20 -29.4375 17.0625 C-28.96631673 13.76421714 -28.33698114 12.33698114 -26 10 C-25.34 10 -24.68 10 -24 10 C-24 9.34 -24 8.68 -24 8 C-23.34 8 -22.68 8 -22 8 C-22 7.34 -22 6.68 -22 6 C-14.94410256 1.76646153 -8.11575436 0.86628839 0 0 Z " fill="#407548" transform="translate(42,139)"/>
<path d="M0 0 C0 0.66 0 1.32 0 2 C-1.5159375 2.5878125 -1.5159375 2.5878125 -3.0625 3.1875 C-9.0499922 5.79339236 -14.18347565 8.9011646 -17.2890625 14.88671875 C-18.71391895 19.1221437 -18.83951811 23.56267572 -19 28 C-18.34 28 -17.68 28 -17 28 C-16.9175 28.78375 -16.835 29.5675 -16.75 30.375 C-16.29090262 33.13056291 -16.29090262 33.13056291 -14.0625 34.125 C-13.381875 34.41375 -12.70125 34.7025 -12 35 C-11.34 35.99 -10.68 36.98 -10 38 C-15.28382406 37.58558243 -18.31098922 36.88841677 -22 33 C-26.86409872 26.54632654 -26.4273386 19.78705895 -26 12 C-25.34 12 -24.68 12 -24 12 C-23.9175 11.443125 -23.835 10.88625 -23.75 10.3125 C-22.66479329 6.96644599 -21.61512956 5.42833459 -19 3 C-12.74495552 0.46580192 -6.69695713 -0.37907305 0 0 Z " fill="#407549" transform="translate(138,58)"/>
<path d="M0 0 C1.93166016 0.01740234 1.93166016 0.01740234 3.90234375 0.03515625 C5.19269531 0.04417969 6.48304687 0.05320312 7.8125 0.0625 C8.81152344 0.07410156 9.81054688 0.08570312 10.83984375 0.09765625 C-0.92111451 12.61738601 -18.85287892 25.21077263 -36.16015625 27.09765625 C-36.16015625 26.43765625 -36.16015625 25.77765625 -36.16015625 25.09765625 C-34.52832518 24.04176556 -32.85222626 23.05404365 -31.16015625 22.09765625 C-30.10828125 21.37578125 -29.05640625 20.65390625 -27.97265625 19.91015625 C-25.16015625 18.09765625 -25.16015625 18.09765625 -23.16015625 18.09765625 C-23.16015625 17.43765625 -23.16015625 16.77765625 -23.16015625 16.09765625 C-21.69921875 14.80859375 -21.69921875 14.80859375 -19.78515625 13.47265625 C-19.15867187 13.02664062 -18.5321875 12.580625 -17.88671875 12.12109375 C-16.16015625 11.09765625 -16.16015625 11.09765625 -14.16015625 11.09765625 C-14.16015625 10.43765625 -14.16015625 9.77765625 -14.16015625 9.09765625 C-12.56606927 7.68294022 -10.9090876 6.33841526 -9.22265625 5.03515625 C-7.84787109 3.96587891 -7.84787109 3.96587891 -6.4453125 2.875 C-5.69121094 2.28847656 -4.93710938 1.70195312 -4.16015625 1.09765625 C-3.16015625 0.09765625 -3.16015625 0.09765625 0 0 Z " fill="#407548" transform="translate(118.16015625,127.90234375)"/>
<path d="M0 0 C-3.95037523 10.19748026 -20.56443179 17.28221589 -30 22 C-31.70702735 22.06996014 -33.41668003 22.08440154 -35.125 22.0625 C-36.03507812 22.05347656 -36.94515625 22.04445312 -37.8828125 22.03515625 C-38.93082031 22.01775391 -38.93082031 22.01775391 -40 22 C-38.71937515 20.2925002 -37.38232443 18.62626404 -36 17 C-35.34 17 -34.68 17 -34 17 C-34 16.34 -34 15.68 -34 15 C-33.113125 14.525625 -32.22625 14.05125 -31.3125 13.5625 C-26.37311263 10.76015369 -21.80457204 7.41069774 -17.18359375 4.12109375 C-10.704848 -0.19542029 -7.51419581 -1.4251061 0 0 Z " fill="#417549" transform="translate(154,136)"/>
<path d="M0 0 C-5.64980185 8.00388596 -16.08790705 15.57294308 -25.625 17.875 C-26.40875 17.91625 -27.1925 17.9575 -28 18 C-28 18.66 -28 19.32 -28 20 C-41.6332574 23.44419134 -41.6332574 23.44419134 -48 23 C-46.64048144 20.28096288 -45.10259234 19.91875226 -42.375 18.625 C-39.17534818 17.08018243 -36.05642409 15.49943074 -33 13.6875 C-30 12 -30 12 -28 12 C-28 11.34 -28 10.68 -28 10 C-25.48287811 8.70064536 -22.96170913 7.41045628 -20.4375 6.125 C-19.73302734 5.76019531 -19.02855469 5.39539063 -18.30273438 5.01953125 C-12.38595692 2.02024314 -6.78206733 -0.41103438 0 0 Z " fill="#407448" transform="translate(110,127)"/>
<path d="M0 0 C0.99 0.66 1.98 1.32 3 2 C-0.15320318 13.56174501 -14.85877153 20.64851326 -24.33984375 26.36328125 C-26.83265826 27.75542485 -26.83265826 27.75542485 -28 29 C-30.33944736 28.71269945 -32.6739143 28.38063221 -35 28 C-35 27.01 -35 26.02 -35 25 C-32.8828125 23.17578125 -32.8828125 23.17578125 -30.125 21.3125 C-29.22007812 20.68988281 -28.31515625 20.06726563 -27.3828125 19.42578125 C-25 18 -25 18 -23 18 C-23 17.34 -23 16.68 -23 16 C-20 14 -20 14 -17 14 C-17 13.34 -17 12.68 -17 12 C-15.56640625 10.703125 -15.56640625 10.703125 -13.5625 9.25 C-12.48162109 8.46496094 -12.48162109 8.46496094 -11.37890625 7.6640625 C-7.63010941 5.04175141 -3.83081984 2.50067406 0 0 Z " fill="#407548" transform="translate(379,181)"/>
<path d="M0 0 C2.64 0.33 5.28 0.66 8 1 C8 1.66 8 2.32 8 3 C7.34 3 6.68 3 6 3 C6 3.66 6 4.32 6 5 C4.3203125 6.5078125 4.3203125 6.5078125 2.125 8.125 C1.40570313 8.66382813 0.68640625 9.20265625 -0.0546875 9.7578125 C-2 11 -2 11 -4 11 C-4 11.66 -4 12.32 -4 13 C-5.69810754 14.37898043 -7.46035459 15.67959478 -9.25 16.9375 C-10.22453125 17.62714844 -11.1990625 18.31679687 -12.203125 19.02734375 C-13.58757812 20.00380859 -13.58757812 20.00380859 -15 21 C-15.67675781 21.52464844 -16.35351562 22.04929688 -17.05078125 22.58984375 C-19.25604731 24.18523663 -21.50582817 25.40354389 -23.9375 26.625 C-24.77152344 27.05039063 -25.60554688 27.47578125 -26.46484375 27.9140625 C-28.98610897 28.99404976 -31.29927965 29.56517919 -34 30 C-34 28.68 -34 27.36 -34 26 C-31.55078125 24 -31.55078125 24 -28.3125 22 C-25.14586323 20.02036871 -22.13069031 18.10617436 -19.23046875 15.75 C-17 14 -17 14 -15 14 C-15 13.34 -15 12.68 -15 12 C-14.34 12 -13.68 12 -13 12 C-13 11.34 -13 10.68 -13 10 C-11.35546875 8.74609375 -11.35546875 8.74609375 -9.1875 7.4375 C-8.47980469 7.00308594 -7.77210938 6.56867188 -7.04296875 6.12109375 C-5 5 -5 5 -2 4 C-2 3.34 -2 2.68 -2 2 C-1.34 2 -0.68 2 0 2 C0 1.34 0 0.68 0 0 Z " fill="#407549" transform="translate(367,177)"/>
<path d="M0 0 C-3.9587008 5.23570106 -8.51960679 9.3607605 -14 13 C-14.66 13 -15.32 13 -16 13 C-16 13.66 -16 14.32 -16 15 C-18.62291338 17.12149278 -21.56742747 18.79612755 -24.4375 20.5625 C-25.22060547 21.06974609 -26.00371094 21.57699219 -26.81054688 22.09960938 C-32.32467037 25.50792768 -36.5174465 26.73394926 -43 27 C-37.35475578 21.19794344 -37.35475578 21.19794344 -34 19 C-33.34 19 -32.68 19 -32 19 C-32 18.34 -32 17.68 -32 17 C-31.195625 16.731875 -30.39125 16.46375 -29.5625 16.1875 C-28.716875 15.795625 -27.87125 15.40375 -27 15 C-26.67 14.01 -26.34 13.02 -26 12 C-24.25 10.60546875 -24.25 10.60546875 -22 9.1875 C-19.50257311 7.60830296 -17.05533338 6.04115012 -14.68359375 4.27734375 C-9.50800484 0.46991052 -6.43141458 -0.70160886 0 0 Z " fill="#3F754A" transform="translate(364,175)"/>
<path d="M0 0 C4.828125 1.75 4.828125 1.75 6.375 4 C7 6 7 6 6 8 C5.34 8 4.68 8 4 8 C4 8.66 4 9.32 4 10 C2.35546875 11.2890625 2.35546875 11.2890625 0.1875 12.625 C-0.52019531 13.07101563 -1.22789062 13.51703125 -1.95703125 13.9765625 C-4 15 -4 15 -7 15 C-7 15.66 -7 16.32 -7 17 C-13.87568372 20.34453926 -18.44947999 21.46139097 -26 20 C-26 19.34 -26 18.68 -26 18 C-25.06994141 17.55914062 -25.06994141 17.55914062 -24.12109375 17.109375 C-15.13157094 12.55573026 -7.70804937 6.42857559 0 0 Z " fill="#417549" transform="translate(158,139)"/>
<path d="M0 0 C0.495 0.99 0.495 0.99 1 2 C0.67 2.66 0.34 3.32 0 4 C1.32 3.67 2.64 3.34 4 3 C3.375 5.375 3.375 5.375 2 8 C-0.75 9.125 -0.75 9.125 -4 10 C-4.99 10.556875 -5.98 11.11375 -7 11.6875 C-10.55759286 13.24394688 -12.30499185 13.00772949 -16 12 C-16.66 11.67 -17.32 11.34 -18 11 C-22.67248931 13.82522609 -25.65996398 16.67760044 -29 21 C-29.99 20.67 -30.98 20.34 -32 20 C-32 17 -32 17 -30.1640625 14.94921875 C-9.73774612 -3.24591537 -9.73774612 -3.24591537 0 0 Z " fill="#326540" transform="translate(334,169)"/>
<path d="M0 0 C0 0.99 0 1.98 0 3 C-0.66 3 -1.32 3 -2 3 C-2.33 4.32 -2.66 5.64 -3 7 C-3.66 7 -4.32 7 -5 7 C-5.268125 7.639375 -5.53625 8.27875 -5.8125 8.9375 C-7 11 -7 11 -10 12 C-10 12.66 -10 13.32 -10 14 C-10.66 14 -11.32 14 -12 14 C-12 14.66 -12 15.32 -12 16 C-12.66 16 -13.32 16 -14 16 C-14.33 13.69 -14.66 11.38 -15 9 C-23.94240929 8.90048193 -29.62216197 10.242773 -36.85546875 15.6015625 C-37.56316406 16.06304688 -38.27085937 16.52453125 -39 17 C-39.66 16.67 -40.32 16.34 -41 16 C-39.68 15.34 -38.36 14.68 -37 14 C-37 13.34 -37 12.68 -37 12 C-35.0234375 10.59765625 -35.0234375 10.59765625 -32.375 9.0625 C-31.51648438 8.55847656 -30.65796875 8.05445313 -29.7734375 7.53515625 C-28.40058594 6.77525391 -28.40058594 6.77525391 -27 6 C-26.08863281 5.47664062 -25.17726562 4.95328125 -24.23828125 4.4140625 C-20.14382422 2.62613313 -16.21017414 1.96519616 -11.8125 1.3125 C-11.00619141 1.18294922 -10.19988281 1.05339844 -9.36914062 0.91992188 C-6.19312473 0.42094681 -3.22190475 0 0 0 Z " fill="#3F7448" transform="translate(245,10)"/>
<path d="M0 0 C2.475 0.495 2.475 0.495 5 1 C5 2.65 5 4.3 5 6 C4.34 6 3.68 6 3 6 C2.81695312 6.57492188 2.63390625 7.14984375 2.4453125 7.7421875 C0.33263848 11.04252691 -2.73122371 12.38849579 -6.125 14.125 C-6.764375 14.47175781 -7.40375 14.81851563 -8.0625 15.17578125 C-14.45468915 18.52590448 -20.69292729 20.36535364 -28 20 C-25.59220044 17.36175098 -22.97191848 15.61867785 -19.9375 13.75 C-15.21236886 10.80462648 -10.67764213 7.6791242 -6.19140625 4.3828125 C-4.07563685 3.04772806 -2.44484093 2.43439087 0 2 C0 1.34 0 0.68 0 0 Z " fill="#407549" transform="translate(384,72)"/>
<path d="M0 0 C0.66 0.33 1.32 0.66 2 1 C1.67 1.66 1.34 2.32 1 3 C2.32 3.33 3.64 3.66 5 4 C4.67 5.32 4.34 6.64 4 8 C3.34 8 2.68 8 2 8 C2 8.66 2 9.32 2 10 C5.43793339 9.81870185 5.43793339 9.81870185 9 9 C10.46804363 7.14853436 10.46804363 7.14853436 11 5 C11.33 4.34 11.66 3.68 12 3 C12.99 3 13.98 3 15 3 C13.61460714 7.86641163 10.72506801 10.29765556 6.875 13.3125 C6.31167969 13.76689453 5.74835938 14.22128906 5.16796875 14.68945312 C3.7859464 15.80209823 2.39394154 16.90232432 1 18 C-1.5 15.6875 -1.5 15.6875 -4 13 C-4 12.01 -4 11.02 -4 10 C-3.34 9.67 -2.68 9.34 -2 9 C-1.67 8.01 -1.34 7.02 -1 6 C-2.65 6.33 -4.3 6.66 -6 7 C-4.02 4.69 -2.04 2.38 0 0 Z " fill="#30633F" transform="translate(133,175)"/>
<path d="M0 0 C0.556875 0.226875 1.11375 0.45375 1.6875 0.6875 C2.0625 3.4375 2.0625 3.4375 1.6875 6.6875 C-3.15460526 10.6875 -3.15460526 10.6875 -6.3125 10.6875 C-6.3125 11.3475 -6.3125 12.0075 -6.3125 12.6875 C-10.2725 12.6875 -14.2325 12.6875 -18.3125 12.6875 C-17.14880874 9.19642621 -16.42276462 8.83527237 -13.375 7 C-12.30958984 6.34451172 -12.30958984 6.34451172 -11.22265625 5.67578125 C-9.3125 4.6875 -9.3125 4.6875 -7.3125 4.6875 C-7.3125 4.0275 -7.3125 3.3675 -7.3125 2.6875 C-3.15982824 -0.42700382 -3.15982824 -0.42700382 0 0 Z " fill="#3F7448" transform="translate(171.3125,147.3125)"/>
<path d="M0 0 C0.92127686 0.04310303 1.84255371 0.08620605 2.79174805 0.13061523 C9.35549464 0.49024732 9.35549464 0.49024732 11.625 1.625 C11.604375 2.57375 11.58375 3.5225 11.5625 4.5 C11.39948174 7.53166283 11.39948174 7.53166283 12.625 9.625 C12.295 10.285 11.965 10.945 11.625 11.625 C12.285 11.955 12.945 12.285 13.625 12.625 C12.965 13.285 12.305 13.945 11.625 14.625 C10.305 10.995 8.985 7.365 7.625 3.625 C-3.595 3.625 -14.815 3.625 -26.375 3.625 C-26.705 2.635 -27.035 1.645 -27.375 0.625 C-18.19019321 -0.21943061 -9.21384407 -0.4432859 0 0 Z " fill="#57735E" transform="translate(46.375,168.375)"/>
<path d="M0 0 C51.38906752 -0.20900322 51.38906752 -0.20900322 73 1 C73 1.33 73 1.66 73 2 C55.51 2.66 38.02 3.32 20 4 C19.67 3.34 19.34 2.68 19 2 C12.73 1.67 6.46 1.34 0 1 C0 0.67 0 0.34 0 0 Z " fill="#7E9785" transform="translate(247,257)"/>
<path d="M0 0 C0.66 0.33 1.32 0.66 2 1 C0.54598998 4.57248699 -1.2690909 6.20351555 -4.375 8.4375 C-7.80596285 11.00105356 -10.52835201 13.45372245 -13 17 C-13.99 16.67 -14.98 16.34 -16 16 C-16 13 -16 13 -14.0234375 10.87890625 C-9.51354903 6.93441677 -5.13351415 3.10712699 0 0 Z " fill="#4E7058" transform="translate(318,173)"/>
<path d="M0 0 C0 0.33 0 0.66 0 1 C1.11072876 0.99214478 1.11072876 0.99214478 2.24389648 0.98413086 C5.64175548 0.96317443 9.03960081 0.95028092 12.4375 0.9375 C13.60216797 0.92912109 14.76683594 0.92074219 15.96679688 0.91210938 C22.40326202 0.89397849 28.62065875 1.13350124 35 2 C35 2.33 35 2.66 35 3 C28.42755535 3.83661464 21.99847755 4.19217018 15.375 4.1875 C13.94389893 4.1884668 13.94389893 4.1884668 12.48388672 4.18945312 C4.51737049 4.13055097 -3.15362324 3.36883831 -11 2 C-11 1.67 -11 1.34 -11 1 C-7.27569643 0.30710631 -3.78916254 -0.11144596 0 0 Z " fill="#849D89" transform="translate(141,112)"/>
<path d="M0 0 C3.06218456 3.06218456 3.75249298 4.46189944 4.125 8.69140625 C3.71743635 16.21859742 -0.81736897 23.69890884 -6 29 C-6.66 29 -7.32 29 -8 29 C-7.75 26.625 -7.75 26.625 -7 24 C-4.9375 22.6875 -4.9375 22.6875 -3 22 C-3 21.01 -3 20.02 -3 19 C-2.34 19 -1.68 19 -1 19 C-1.33 18.01 -1.66 17.02 -2 16 C-1.01 16 -0.02 16 1 16 C0.67 10.72 0.34 5.44 0 0 Z " fill="#69806D" transform="translate(393,182)"/>
<path d="M0 0 C0 0.99 0 1.98 0 3 C-0.99 3 -1.98 3 -3 3 C-3.33 3.66 -3.66 4.32 -4 5 C-6.475 4.505 -6.475 4.505 -9 4 C-9.2475 4.61875 -9.495 5.2375 -9.75 5.875 C-11.22246063 8.37818306 -12.41028837 8.83045281 -15 10 C-15.33 10.66 -15.66 11.32 -16 12 C-16 11.01 -16 10.02 -16 9 C-17.98 9 -19.96 9 -22 9 C-19.92195591 6.92195591 -18.63400605 6.31672853 -15.9375 5.2734375 C-15.14085938 4.9640625 -14.34421875 4.6546875 -13.5234375 4.3359375 C-12.69070312 4.01882812 -11.85796875 3.70171875 -11 3.375 C-10.16726562 3.05015625 -9.33453125 2.7253125 -8.4765625 2.390625 C-2.26897321 0 -2.26897321 0 0 0 Z " fill="#56785F" transform="translate(96,121)"/>
<path d="M0 0 C1.63001953 0.01353516 1.63001953 0.01353516 3.29296875 0.02734375 C4.12441406 0.03894531 4.95585937 0.05054687 5.8125 0.0625 C5.8125 0.3925 5.8125 0.7225 5.8125 1.0625 C-0.6225 1.5575 -0.6225 1.5575 -7.1875 2.0625 C-7.579375 3.50625 -7.97125 4.95 -8.375 6.4375 C-10.02582722 11.99316852 -12.44693235 16.97132689 -15.1875 22.0625 C-15.8475 21.4025 -16.5075 20.7425 -17.1875 20.0625 C-16.83394564 17.79975212 -16.21205574 16.11161148 -15.1875 14.0625 C-14.5275 14.0625 -13.8675 14.0625 -13.1875 14.0625 C-13.5175 13.0725 -13.8475 12.0825 -14.1875 11.0625 C-13.1975 11.0625 -12.2075 11.0625 -11.1875 11.0625 C-11.043125 9.969375 -10.89875 8.87625 -10.75 7.75 C-10.1875 4.0625 -10.1875 4.0625 -9.1875 1.0625 C-5.90230525 -0.03256492 -3.45086585 -0.03710608 0 0 Z " fill="#728776" transform="translate(358.1875,103.9375)"/>
<path d="M0 0 C1.58788495 0.01005504 3.1757761 0.0191764 4.76367188 0.02734375 C8.61343725 0.04914557 12.46289827 0.08353441 16.3125 0.125 C16.3125 0.455 16.3125 0.785 16.3125 1.125 C14.91173218 1.16258423 14.91173218 1.16258423 13.48266602 1.20092773 C10.02924811 1.29586928 6.5760104 1.39511258 3.12280273 1.49731445 C1.62610731 1.54071813 0.12936061 1.58238913 -1.36743164 1.62231445 C-3.51464312 1.67988616 -5.66159521 1.74361716 -7.80859375 1.80859375 C-9.1020874 1.84525146 -10.39558105 1.88190918 -11.72827148 1.91967773 C-14.57305008 1.7917278 -14.57305008 1.7917278 -15.6875 3.125 C-17.04083748 3.17238162 -18.39634302 3.16215011 -19.75 3.125 C-24.16248021 3.06842974 -28.32348152 3.49023368 -32.6875 4.125 C-22.83624027 -1.23460296 -10.86667084 -0.12062699 0 0 Z " fill="#93A898" transform="translate(254.6875,-0.125)"/>
<path d="M0 0 C0.144375 0.61875 0.28875 1.2375 0.4375 1.875 C0.93152225 4.03258322 0.93152225 4.03258322 2 6 C1.01 6.33 0.02 6.66 -1 7 C-1.99 7.495 -1.99 7.495 -3 8 C-2.67 9.32 -2.34 10.64 -2 12 C-5.75 15 -5.75 15 -8 15 C-8.33 16.32 -8.66 17.64 -9 19 C-9.99 18.34 -10.98 17.68 -12 17 C-8.02889396 11.31227752 -4.04356153 5.6364797 0 0 Z " fill="#516E57" transform="translate(328,119)"/>
<path d="M0 0 C0.33 0.66 0.66 1.32 1 2 C1.66 2 2.32 2 3 2 C3 2.66 3 3.32 3 4 C-5.25 4 -13.5 4 -22 4 C-22 3.01 -22 2.02 -22 1 C-21.36908447 1.00523682 -20.73816895 1.01047363 -20.08813477 1.01586914 C-17.24626653 1.03657826 -14.40441412 1.04964066 -11.5625 1.0625 C-10.56927734 1.07087891 -9.57605469 1.07925781 -8.55273438 1.08789062 C-7.60849609 1.09111328 -6.66425781 1.09433594 -5.69140625 1.09765625 C-4.81685791 1.10289307 -3.94230957 1.10812988 -3.04125977 1.11352539 C-1.00559794 1.22784809 -1.00559794 1.22784809 0 0 Z " fill="#708473" transform="translate(264,104)"/>
<path d="M0 0 C0.33 0.99 0.66 1.98 1 3 C1.66 3 2.32 3 3 3 C3.33 2.34 3.66 1.68 4 1 C4 1.99 4 2.98 4 4 C0.18793688 5.7697771 -2.76775622 6.23827942 -6.95703125 6.1953125 C-8.06884766 6.18886719 -9.18066406 6.18242187 -10.32617188 6.17578125 C-11.47666016 6.15902344 -12.62714844 6.14226562 -13.8125 6.125 C-14.98232422 6.11597656 -16.15214844 6.10695312 -17.35742188 6.09765625 C-20.23849053 6.07413732 -23.11913989 6.04126852 -26 6 C-26 5.67 -26 5.34 -26 5 C-25.31897217 4.95512451 -24.63794434 4.91024902 -23.9362793 4.86401367 C-20.85218365 4.65275983 -17.77003438 4.4203863 -14.6875 4.1875 C-13.61564453 4.11724609 -12.54378906 4.04699219 -11.43945312 3.97460938 C-9.89741211 3.85375977 -9.89741211 3.85375977 -8.32421875 3.73046875 C-7.37635498 3.66239014 -6.42849121 3.59431152 -5.4519043 3.52416992 C-2.69693952 2.93521151 -1.73786862 2.1653385 0 0 Z " fill="#57715E" transform="translate(364,227)"/>
<path d="M0 0 C6.625 0.625 6.625 0.625 10 4 C5.05 6.97 5.05 6.97 0 10 C-1.09045549 5.63817802 -0.90898166 5.57934062 1 2 C0.67 1.34 0.34 0.68 0 0 Z " fill="#456C50" transform="translate(123,190)"/>
<path d="M0 0 C2.125 0.375 2.125 0.375 4 1 C4 1.66 4 2.32 4 3 C2.62050868 3.95208482 1.19442712 4.83715178 -0.25 5.6875 C-4.80967733 8.59564066 -6.75789118 11.12585039 -9 16 C-11 13 -11 13 -11 10 C-9.35 9.34 -7.7 8.68 -6 8 C-6 7.01 -6 6.02 -6 5 C-4.125 3.4375 -4.125 3.4375 -2 2 C-1.34 1.34 -0.68 0.68 0 0 Z " fill="#58745D" transform="translate(213,216)"/>
<path d="M0 0 C0.99 0 1.98 0 3 0 C1.63422544 4.28493007 -0.20681345 6.43145705 -3.625 9.3125 C-4.44226563 10.00988281 -5.25953125 10.70726562 -6.1015625 11.42578125 C-6.72804687 11.94527344 -7.35453125 12.46476563 -8 13 C-8.99 12.67 -9.98 12.34 -11 12 C-10.67 10.68 -10.34 9.36 -10 8 C-8.88625 7.7525 -7.7725 7.505 -6.625 7.25 C-2.97964288 6.39476016 -2.97964288 6.39476016 -1.625 4 C-1.41875 3.34 -1.2125 2.68 -1 2 C-0.67 1.34 -0.34 0.68 0 0 Z " fill="#4C6B54" transform="translate(145,178)"/>
<path d="M0 0 C3.95570883 0.65685202 7.42259166 1.84392888 11.125 3.375 C12.67574219 4.00535156 12.67574219 4.00535156 14.2578125 4.6484375 C16.7510615 5.87730382 18.2231047 6.90448899 20 9 C19.01 9.495 19.01 9.495 18 10 C18 9.34 18 8.68 18 8 C17.01 8.33 16.02 8.66 15 9 C14.67 8.01 14.34 7.02 14 6 C13.01 6.33 12.02 6.66 11 7 C8.64811553 6.40206327 6.31074405 5.74118205 4 5 C4 4.34 4 3.68 4 3 C2.68 3 1.36 3 0 3 C0 2.01 0 1.02 0 0 Z " fill="#4E6D55" transform="translate(356,35)"/>
<path d="M0 0 C6.6 0 13.2 0 20 0 C21.20272819 2.40545638 21.10071472 3.94996953 21.0625 6.625 C21.05347656 7.44226563 21.04445313 8.25953125 21.03515625 9.1015625 C21.02355469 9.72804687 21.01195313 10.35453125 21 11 C20.01 11 19.02 11 18 11 C18 8.03 18 5.06 18 2 C12.06 1.67 6.12 1.34 0 1 C0 0.67 0 0.34 0 0 Z " fill="#6E8873" transform="translate(76,170)"/>
<path d="M0 0 C0 0.33 0 0.66 0 1 C-2.52067313 1.16945702 -5.04149384 1.33563484 -7.5625 1.5 C-8.61920898 1.57154297 -8.61920898 1.57154297 -9.69726562 1.64453125 C-13.09627767 1.86382235 -16.42971127 1.99650286 -19.83984375 1.96875 C-23.0273315 1.83864857 -23.0273315 1.83864857 -26 3 C-28.6875 2.5625 -28.6875 2.5625 -31 2 C-31 1.67 -31 1.34 -31 1 C-20.28087384 -0.70774129 -10.7304689 -1.56079548 0 0 Z " fill="#8F9E91" transform="translate(365,166)"/>
<path d="M0 0 C0.66 0.33 1.32 0.66 2 1 C1.875 3.8125 1.875 3.8125 1 7 C-1.75 8.75 -1.75 8.75 -5 10 C-5.94875 10.391875 -6.8975 10.78375 -7.875 11.1875 C-8.57625 11.455625 -9.2775 11.72375 -10 12 C-9.34 10.68 -8.68 9.36 -8 8 C-7.34 8 -6.68 8 -6 8 C-6 7.34 -6 6.68 -6 6 C-5.34 6 -4.68 6 -4 6 C-4 5.34 -4 4.68 -4 4 C-3.34 4 -2.68 4 -2 4 C-1.34 2.68 -0.68 1.36 0 0 Z " fill="#5F7E67" transform="translate(150,208)"/>
<path d="M0 0 C2 1 2 1 3 3 C1.02 3.33 -0.96 3.66 -3 4 C-3 4.66 -3 5.32 -3 6 C-3.66 6 -4.32 6 -5 6 C-5.33 6.99 -5.66 7.98 -6 9 C-9.3 9 -12.6 9 -16 9 C-13.369307 6.369307 -10.2885168 4.96006012 -7 3.3125 C-6.03707031 2.81266602 -6.03707031 2.81266602 -5.0546875 2.30273438 C-3.40073736 1.47056908 -1.70233557 0.72808225 0 0 Z " fill="#607C68" transform="translate(191,20)"/>
<path d="M0 0 C6.27 0 12.54 0 19 0 C19 1.98 19 3.96 19 6 C19.33 6.66 19.66 7.32 20 8 C19.67 8.66 19.34 9.32 19 10 C19.66 10.33 20.32 10.66 21 11 C20.34 11.66 19.68 12.32 19 13 C17.68 9.37 16.36 5.74 15 2 C10.05 1.67 5.1 1.34 0 1 C0 0.67 0 0.34 0 0 Z " fill="#7A9481" transform="translate(39,170)"/>
<path d="M0 0 C4.20969919 1.50346399 5.91860139 4.14555814 8 8 C7.75 10.375 7.75 10.375 7 12 C5.68 12.33 4.36 12.66 3 13 C3 11.02 3 9.04 3 7 C2.34 7 1.68 7 1 7 C0.67 4.69 0.34 2.38 0 0 Z " fill="#5E7863" transform="translate(394,58)"/>
<path d="M0 0 C11.63575996 0.87383178 11.63575996 0.87383178 16 3 C16.65234375 5.07421875 16.65234375 5.07421875 17 7 C11.14340094 5.33846988 5.5409866 3.52958084 0 1 C0 0.67 0 0.34 0 0 Z " fill="#55725C" transform="translate(305,220)"/>
<path d="M0 0 C2.64 0 5.28 0 8 0 C8.33 0.99 8.66 1.98 9 3 C8 4 8 4 5.27734375 4.09765625 C3.62412109 4.08025391 3.62412109 4.08025391 1.9375 4.0625 C0.83277344 4.05347656 -0.27195313 4.04445312 -1.41015625 4.03515625 C-2.69212891 4.01775391 -2.69212891 4.01775391 -4 4 C-3.01 3.67 -2.02 3.34 -1 3 C-0.67 2.01 -0.34 1.02 0 0 Z " fill="#255636" transform="translate(234,210)"/>
<path d="M0 0 C0.66 0.33 1.32 0.66 2 1 C1.67 1.66 1.34 2.32 1 3 C2.32 3.33 3.64 3.66 5 4 C4.67 5.32 4.34 6.64 4 8 C2.68 8 1.36 8 0 8 C0 7.34 0 6.68 0 6 C-1.98 6.33 -3.96 6.66 -6 7 C-4.02 4.69 -2.04 2.38 0 0 Z " fill="#4D7557" transform="translate(133,175)"/>
<path d="M0 0 C-1 3 -1 3 -3.43359375 4.38671875 C-4.42488281 4.81597656 -5.41617187 5.24523437 -6.4375 5.6875 C-7.42621094 6.12449219 -8.41492188 6.56148438 -9.43359375 7.01171875 C-12 8 -12 8 -14 8 C-13.67 7.01 -13.34 6.02 -13 5 C-11.35 5 -9.7 5 -8 5 C-7.814375 4.0409375 -7.814375 4.0409375 -7.625 3.0625 C-7.41875 2.381875 -7.2125 1.70125 -7 1 C-4.53721199 -0.231394 -2.7204945 -0.07159196 0 0 Z " fill="#627D69" transform="translate(394,92)"/>
<path d="M0 0 C0.66 0.33 1.32 0.66 2 1 C1.67 1.66 1.34 2.32 1 3 C0.01 3.33 -0.98 3.66 -2 4 C-3.0064275 5.66279327 -4.00585407 7.32983484 -5 9 C-7.1875 10.8125 -7.1875 10.8125 -9 12 C-9.33 11.01 -9.66 10.02 -10 9 C-6.83047153 5.73991357 -3.60062011 2.77762123 0 0 Z " fill="#55745F" transform="translate(314,137)"/>
<path d="M0 0 C0.80179688 0.00451172 1.60359375 0.00902344 2.4296875 0.01367188 C4.41149006 0.02546832 6.39325433 0.04340395 8.375 0.0625 C8.375 0.3925 8.375 0.7225 8.375 1.0625 C2.435 1.5575 2.435 1.5575 -3.625 2.0625 C-3.295 3.0525 -2.965 4.0425 -2.625 5.0625 C-3.615 5.0625 -4.605 5.0625 -5.625 5.0625 C-5.625 4.4025 -5.625 3.7425 -5.625 3.0625 C-6.615 3.0625 -7.605 3.0625 -8.625 3.0625 C-8.955 3.7225 -9.285 4.3825 -9.625 5.0625 C-9.955 3.7425 -10.285 2.4225 -10.625 1.0625 C-7.31505287 -0.59247356 -3.63377 -0.03834335 0 0 Z " fill="#57775E" transform="translate(231.625,105.9375)"/>
<path d="M0 0 C0 0.33 0 0.66 0 1 C-2.64 1.33 -5.28 1.66 -8 2 C-8.33 2.99 -8.66 3.98 -9 5 C-9.66 5 -10.32 5 -11 5 C-11.33 5.66 -11.66 6.32 -12 7 C-13.32 6.67 -14.64 6.34 -16 6 C-16 5.34 -16 4.68 -16 4 C-10.45108785 1.18150494 -6.258654 -0.5326514 0 0 Z " fill="#738D78" transform="translate(52,262)"/>
<path d="M0 0 C6.51819877 1.89536276 12.17814801 4.5178994 18 8 C18 8.33 18 8.66 18 9 C16.35 9 14.7 9 13 9 C12.67 8.01 12.34 7.02 12 6 C10.68 6 9.36 6 8 6 C8 5.34 8 4.68 8 4 C6.68 4 5.36 4 4 4 C4 3.34 4 2.68 4 2 C2.68 2 1.36 2 0 2 C0 1.34 0 0.68 0 0 Z " fill="#6C8471" transform="translate(149,123)"/>
<path d="M0 0 C3.06742308 2.67055971 3.62376743 4.84895533 4.015625 8.92578125 C3.99337043 11.8800748 3.14648438 14.30238969 2 17 C0.84429296 13.53287889 0.67164707 10.4585044 0.4375 6.8125 C0.35371094 5.54019531 0.26992188 4.26789063 0.18359375 2.95703125 C0.12300781 1.98121094 0.06242187 1.00539062 0 0 Z " fill="#798C7E" transform="translate(393,182)"/>
<path d="M0 0 C0.66 0.33 1.32 0.66 2 1 C0.3990869 2.15037471 -1.20585225 3.29514816 -2.8125 4.4375 C-4.15248047 5.39462891 -4.15248047 5.39462891 -5.51953125 6.37109375 C-8 8 -8 8 -11 9 C-11.66 8.34 -12.32 7.68 -13 7 C-10.88002166 5.80266012 -8.75486324 4.61701287 -6.625 3.4375 C-6.02171875 3.09525391 -5.4184375 2.75300781 -4.796875 2.40039062 C-3.23021759 1.53872905 -1.61709138 0.76281817 0 0 Z " fill="#708778" transform="translate(125,182)"/>
<path d="M0 0 C-1.44424635 3.23861303 -3.25772247 5.61969163 -5.625 8.25 C-6.25664062 8.95640625 -6.88828125 9.6628125 -7.5390625 10.390625 C-8.02117187 10.92171875 -8.50328125 11.4528125 -9 12 C-9.66 11.34 -10.32 10.68 -11 10 C-10.34 9.01 -9.68 8.02 -9 7 C-8.01 7 -7.02 7 -6 7 C-6 6.34 -6 5.68 -6 5 C-5.34 5 -4.68 5 -4 5 C-4 3.68 -4 2.36 -4 1 C-2 0 -2 0 0 0 Z " fill="#58725F" transform="translate(334,139)"/>
<path d="M0 0 C0.99 0.66 1.98 1.32 3 2 C2.67 2.66 2.34 3.32 2 4 C2.99 4 3.98 4 5 4 C4.67 6.64 4.34 9.28 4 12 C0.25 13.125 0.25 13.125 -2 12 C-2 11.34 -2 10.68 -2 10 C0.475 10.495 0.475 10.495 3 11 C2.01 7.37 1.02 3.74 0 0 Z " fill="#6E8674" transform="translate(277,128)"/>
<path d="M0 0 C2.375 -0.125 2.375 -0.125 5 0 C5.66 0.66 6.32 1.32 7 2 C9.06874034 2.6425235 9.06874034 2.6425235 11 3 C11 4.32 11 5.64 11 7 C6.89188572 5.55007731 3.53144334 3.54592427 0 1 C0 0.67 0 0.34 0 0 Z " fill="#5A7361" transform="translate(70,198)"/>
<path d="M0 0 C-0.66 0 -1.32 0 -2 0 C-2 0.66 -2 1.32 -2 2 C-6.873261 3.5912689 -10.80790596 4.21192221 -16 4 C-13.21769572 2.14513048 -11.15636393 1.27537888 -8 0.3125 C-6.700625 -0.09548828 -6.700625 -0.09548828 -5.375 -0.51171875 C-3 -1 -3 -1 0 0 Z " fill="#637E69" transform="translate(195,190)"/>
<path d="M0 0 C0.33 0 0.66 0 1 0 C1.66 2.97 2.32 5.94 3 9 C3.66 9 4.32 9 5 9 C5.33 10.32 5.66 11.64 6 13 C5.34 13 4.68 13 4 13 C4 12.34 4 11.68 4 11 C3.38125 10.731875 2.7625 10.46375 2.125 10.1875 C-0 9 -0 9 -2 6 C-1.65394389 3.71602968 -1.03295481 2.06590963 0 0 Z " fill="#597563" transform="translate(2,155)"/>
<path d="M0 0 C0.33 0.66 0.66 1.32 1 2 C0.00390625 4.3828125 0.00390625 4.3828125 -1.4375 7.125 C-1.91058594 8.03507812 -2.38367188 8.94515625 -2.87109375 9.8828125 C-3.24363281 10.58148438 -3.61617188 11.28015625 -4 12 C-4.66 11.34 -5.32 10.68 -6 10 C-5.64644564 7.73725212 -5.02455574 6.04911148 -4 4 C-3.34 4 -2.68 4 -2 4 C-2.33 3.01 -2.66 2.02 -3 1 C-2.01 0.67 -1.02 0.34 0 0 Z " fill="#53765A" transform="translate(347,114)"/>
<path d="M0 0 C1.65 0 3.3 0 5 0 C5.33 0.99 5.66 1.98 6 3 C7.98 2.67 9.96 2.34 12 2 C12.33 2.66 12.66 3.32 13 4 C12.01 4 11.02 4 10 4 C11.32 4.66 12.64 5.32 14 6 C13.01 6.495 13.01 6.495 12 7 C9.1796875 5.78515625 9.1796875 5.78515625 5.875 4.0625 C4.77929688 3.49660156 3.68359375 2.93070313 2.5546875 2.34765625 C1.71164063 1.90292969 0.86859375 1.45820313 0 1 C0 0.67 0 0.34 0 0 Z " fill="#667D6A" transform="translate(81,205)"/>
<path d="M0 0 C0.99 0.66 1.98 1.32 3 2 C-0.07692746 4.6815279 -2.19734663 5.42087807 -6.25 5.6875 C-7.14203125 5.75324219 -8.0340625 5.81898438 -8.953125 5.88671875 C-9.62859375 5.92410156 -10.3040625 5.96148437 -11 6 C-10.34 5.01 -9.68 4.02 -9 3 C-6.67284 2.62599214 -4.33882138 2.29235267 -2 2 C-1.34 1.34 -0.68 0.68 0 0 Z " fill="#6A866E" transform="translate(179,165)"/>
<path d="M0 0 C1.32 0.66 2.64 1.32 4 2 C0.37 4.31 -3.26 6.62 -7 9 C-7.33 8.01 -7.66 7.02 -8 6 C-6.68 6 -5.36 6 -4 6 C-4 5.34 -4 4.68 -4 4 C-3.34 4 -2.68 4 -2 4 C-2 3.34 -2 2.68 -2 2 C-1.34 2 -0.68 2 0 2 C0 1.34 0 0.68 0 0 Z " fill="#6A806F" transform="translate(314,155)"/>
<path d="M0 0 C3.3 0.33 6.6 0.66 10 1 C8 3 8 3 4.5234375 3.1953125 C3.14049032 3.18201493 1.75761346 3.15816232 0.375 3.125 C-0.33140625 3.11597656 -1.0378125 3.10695313 -1.765625 3.09765625 C-3.51056098 3.07407603 -5.25532295 3.03820461 -7 3 C-7 2.67 -7 2.34 -7 2 C-4.69 2 -2.38 2 0 2 C0 1.34 0 0.68 0 0 Z " fill="#2A4831" transform="translate(365,282)"/>
<path d="M0 0 C0.33 0 0.66 0 1 0 C1 1.65 1 3.3 1 5 C0.34 5 -0.32 5 -1 5 C-1.33 6.98 -1.66 8.96 -2 11 C-2.99 11 -3.98 11 -5 11 C-4.46939601 6.48986609 -2.69113883 3.61621781 0 0 Z " fill="#5F7965" transform="translate(300,188)"/>
<path d="M0 0 C0 0.99 0 1.98 0 3 C-0.99 3 -1.98 3 -3 3 C-3.33 3.66 -3.66 4.32 -4 5 C-5.65 4.67 -7.3 4.34 -9 4 C-9.33 4.66 -9.66 5.32 -10 6 C-10.66 5.34 -11.32 4.68 -12 4 C-10.3767313 3.3291288 -8.75132422 2.66342971 -7.125 2 C-6.22007813 1.62875 -5.31515625 1.2575 -4.3828125 0.875 C-2 0 -2 0 0 0 Z " fill="#6C8572" transform="translate(96,121)"/>
<path d="M0 0 C5.05255964 0.63156995 9.29593201 2.13459373 14 4 C12.02 4.99 12.02 4.99 10 6 C9.67 5.01 9.34 4.02 9 3 C8.01 3.33 7.02 3.66 6 4 C3.99124558 3.72428861 1.98821313 3.39764263 0 3 C0 2.01 0 1.02 0 0 Z " fill="#577361" transform="translate(296,5)"/>
<path d="M0 0 C0.33 0 0.66 0 1 0 C1.33 2.31 1.66 4.62 2 7 C-0.16967689 7.95465783 -1.56328793 8.14401212 -3.82421875 7.3984375 C-5.5684743 6.64129615 -7.28627131 5.82390802 -9 5 C-8.67 4.34 -8.34 3.68 -8 3 C-5.61435923 3.57584432 -3.33317216 4.22227595 -1 5 C-0.67 3.35 -0.34 1.7 0 0 Z " fill="#68866F" transform="translate(94,185)"/>
<path d="M0 0 C-0.33 0.66 -0.66 1.32 -1 2 C-3.1796875 2.703125 -3.1796875 2.703125 -5.875 3.25 C-6.75929687 3.44078125 -7.64359375 3.6315625 -8.5546875 3.828125 C-11 4 -11 4 -14 2 C-9.15758367 0.66416101 -5.06562383 -0.25328119 0 0 Z " fill="#617966" transform="translate(209,186)"/>
<path d="M0 0 C3.52269485 -0.4025937 4.79940808 -0.13372795 7.8125 1.875 C8.534375 2.57625 9.25625 3.2775 10 4 C10 4.66 10 5.32 10 6 C4.25 4.125 4.25 4.125 2 3 C2 2.34 2 1.68 2 1 C1.34 0.67 0.68 0.34 0 0 Z " fill="#657E6C" transform="translate(232,135)"/>
<path d="M0 0 C1.9375 0.8125 1.9375 0.8125 4 2 C4.33 2.99 4.66 3.98 5 5 C4.34 5.66 3.68 6.32 3 7 C1.02 5.68 -0.96 4.36 -3 3 C-2.01 2.01 -1.02 1.02 0 0 Z " fill="#53775F" transform="translate(105,99)"/>
<path d="M0 0 C0.66 0 1.32 0 2 0 C2.125 5.75 2.125 5.75 1 8 C-0.32 7.67 -1.64 7.34 -3 7 C-2.01 4.69 -1.02 2.38 0 0 Z " fill="#3E6447" transform="translate(148,170)"/>
<path d="M0 0 C2.86724686 0.57344937 3.8614515 0.8614515 6 3 C1.58774263 4.47075246 -1.48281619 5.36884358 -6 4 C-6 3.34 -6 2.68 -6 2 C-4.02 2 -2.04 2 0 2 C0 1.34 0 0.68 0 0 Z " fill="#597B62" transform="translate(197,106)"/>
<path d="M0 0 C3.625 0.375 3.625 0.375 7 1 C7.33 2.32 7.66 3.64 8 5 C4.44219804 4.39009109 1.3171411 3.4216319 -2 2 C-1.34 1.34 -0.68 0.68 0 0 Z " fill="#53745A" transform="translate(112,105)"/>
<path d="M0 0 C-0.99 0 -1.98 0 -3 0 C-3.66 1.65 -4.32 3.3 -5 5 C-6.65 4.67 -8.3 4.34 -10 4 C-7.10257116 -0.27715685 -5.06635533 -1.57231717 0 0 Z " fill="#54735C" transform="translate(122,39)"/>
<path d="M0 0 C0.66 0.33 1.32 0.66 2 1 C1.34 2.65 0.68 4.3 0 6 C-2.31 5.67 -4.62 5.34 -7 5 C-4.88437775 2.67281553 -2.94982021 1.14186589 0 0 Z " fill="#667E6B" transform="translate(215,6)"/>
<path d="M0 0 C0.33 0.66 0.66 1.32 1 2 C-2 4 -2 4 -5 4 C-5.66 5.32 -6.32 6.64 -7 8 C-9.475 7.01 -9.475 7.01 -12 6 C-8 4 -4 2 0 0 Z " fill="#6E8E76" transform="translate(127,248)"/>
<path d="M0 0 C1.65 0.33 3.3 0.66 5 1 C3.02 3.31 1.04 5.62 -1 8 C-1.33 6.68 -1.66 5.36 -2 4 C-1.01 3.67 -0.02 3.34 1 3 C0.67 2.01 0.34 1.02 0 0 Z " fill="#587862" transform="translate(372,221)"/>
<path d="M0 0 C2.97 0 5.94 0 9 0 C9.33 0.99 9.66 1.98 10 3 C10.99 3.33 11.98 3.66 13 4 C8.51474352 3.343621 4.33085971 2.29925791 0 1 C0 0.67 0 0.34 0 0 Z " fill="#6C8672" transform="translate(260,149)"/>
<path d="M0 0 C0.66 0 1.32 0 2 0 C6 6.75 6 6.75 6 9 C3.5067466 8.00269864 2.22532561 7.34925469 0.75 5.0625 C0 3 0 3 0 0 Z " fill="#597563" transform="translate(291,119)"/>
<path d="M0 0 C0.66 0 1.32 0 2 0 C2 0.66 2 1.32 2 2 C1.01 2.495 1.01 2.495 0 3 C-0.65555119 5.52733235 -0.65555119 5.52733235 -1 8 C-2.65 8.33 -4.3 8.66 -6 9 C-4.4722133 5.56247993 -2.49818944 2.81046312 0 0 Z " fill="#6B8372" transform="translate(103,45)"/>
<path d="M0 0 C1.7290774 -0.02725341 3.45828176 -0.04650987 5.1875 -0.0625 C6.15042969 -0.07410156 7.11335938 -0.08570312 8.10546875 -0.09765625 C10.85576513 -0.00486622 13.32479591 0.37888315 16 1 C13.6673544 2.46870279 12.46180464 3.06240603 9.6875 2.6875 C8.800625 2.460625 7.91375 2.23375 7 2 C4.66822025 1.65596692 2.33512959 1.32050798 0 1 C0 0.67 0 0.34 0 0 Z " fill="#758D7A" transform="translate(271,1)"/>
<path d="M0 0 C0.99 0.66 1.98 1.32 3 2 C1.8803014 3.00593243 0.7540588 4.0045849 -0.375 5 C-1.00148438 5.556875 -1.62796875 6.11375 -2.2734375 6.6875 C-4 8 -4 8 -6 8 C-6 7.34 -6 6.68 -6 6 C-5.34 6 -4.68 6 -4 6 C-3.34 4.68 -2.68 3.36 -2 2 C-1.34 2 -0.68 2 0 2 C0 1.34 0 0.68 0 0 Z " fill="#516E58" transform="translate(286,182)"/>
<path d="M0 0 C0.99 0.33 1.98 0.66 3 1 C3 1.66 3 2.32 3 3 C2.34 3 1.68 3 1 3 C0.67 3.66 0.34 4.32 0 5 C-1.64142963 6.0409066 -3.30712215 7.04504326 -5 8 C-4.67 6.68 -4.34 5.36 -4 4 C-3.34 4 -2.68 4 -2 4 C-1.34 2.68 -0.68 1.36 0 0 Z " fill="#295A39" transform="translate(333,115)"/>
<path d="M0 0 C2.64 0 5.28 0 8 0 C7.01 0.495 7.01 0.495 6 1 C6 1.99 6 2.98 6 4 C4.35 4 2.7 4 1 4 C0.67 2.68 0.34 1.36 0 0 Z " fill="#2C5436" transform="translate(38,281)"/>
<path d="M0 0 C1.60379341 -0.05416188 3.20811406 -0.09286638 4.8125 -0.125 C5.70582031 -0.14820313 6.59914063 -0.17140625 7.51953125 -0.1953125 C10 0 10 0 13 2 C8.15507803 3.51403812 4.7408989 2.36602172 0 1 C0 0.67 0 0.34 0 0 Z " fill="#5A7561" transform="translate(327,229)"/>
<path d="M0 0 C0.66 0.33 1.32 0.66 2 1 C2 1.66 2 2.32 2 3 C-1.13498292 4.85776765 -3.37471432 5.20140476 -7 5 C-4.88437775 2.67281553 -2.94982021 1.14186589 0 0 Z " fill="#618066" transform="translate(163,200)"/>
<path d="M0 0 C0.99 0 1.98 0 3 0 C1.73058503 3.91402949 0.48832306 5.79072873 -3 8 C-2.45276317 4.62537285 -1.9451 2.91765 0 0 Z " fill="#678878" transform="translate(145,178)"/>
<path d="M0 0 C4.875 1.75 4.875 1.75 6 4 C4.02 4.33 2.04 4.66 0 5 C-0.33 4.01 -0.66 3.02 -1 2 C-0.67 1.34 -0.34 0.68 0 0 Z " fill="#507259" transform="translate(229,112)"/>
<path d="M0 0 C-2.64738916 1.4606285 -3.89448334 2 -7 2 C-7 2.66 -7 3.32 -7 4 C-10.28976808 5.09658936 -11.71303767 4.79953138 -15 4 C-15 3.67 -15 3.34 -15 3 C-12.87790224 2.30359327 -10.75221473 1.61811643 -8.625 0.9375 C-6.84996094 0.36322266 -6.84996094 0.36322266 -5.0390625 -0.22265625 C-2 -1 -2 -1 0 0 Z " fill="#789681" transform="translate(174,30)"/>
<path d="M0 0 C1.65 0 3.3 0 5 0 C5.33 1.65 5.66 3.3 6 5 C3.69 4.01 1.38 3.02 -1 2 C-0.67 1.34 -0.34 0.68 0 0 Z M3 5 C5 6 5 6 5 6 Z " fill="#2A5A39" transform="translate(178,194)"/>
<path d="M0 0 C4.21878192 -0.19622241 7.17010894 0.19769832 11 2 C10.67 2.66 10.34 3.32 10 4 C6.7 3.34 3.4 2.68 0 2 C0 1.34 0 0.68 0 0 Z " fill="#2A5134" transform="translate(366,168)"/>
<path d="M0 0 C0.99 0.33 1.98 0.66 3 1 C3 1.66 3 2.32 3 3 C2.34 3 1.68 3 1 3 C1 3.66 1 4.32 1 5 C-0.32 5 -1.64 5 -3 5 C-2.625 3.0625 -2.625 3.0625 -2 1 C-1.34 0.67 -0.68 0.34 0 0 Z " fill="#3E6748" transform="translate(37,267)"/>
<path d="M0 0 C0 0.33 0 0.66 0 1 C-1.65 1 -3.3 1 -5 1 C-5 1.66 -5 2.32 -5 3 C-7.64 2.67 -10.28 2.34 -13 2 C-13 1.67 -13 1.34 -13 1 C-8.60563789 0.14256349 -4.47427924 -0.08948558 0 0 Z " fill="#4C6755" transform="translate(86,258)"/>
<path d="M0 0 C2.97 0.33 5.94 0.66 9 1 C9 1.66 9 2.32 9 3 C5.7 2.67 2.4 2.34 -1 2 C-0.67 1.34 -0.34 0.68 0 0 Z " fill="#5D7864" transform="translate(219,255)"/>
<path d="M0 0 C5.75 1.625 5.75 1.625 8 5 C5.125 4.75 5.125 4.75 2 4 C0.625 1.9375 0.625 1.9375 0 0 Z " fill="#547059" transform="translate(385,176)"/>
<path d="M0 0 C0 0.66 0 1.32 0 2 C-5.75 3.125 -5.75 3.125 -8 2 C-8.33 2.66 -8.66 3.32 -9 4 C-9.66 3.34 -10.32 2.68 -11 2 C-7.17010894 0.19769832 -4.21878192 -0.19622241 0 0 Z " fill="#55705F" transform="translate(331,170)"/>
<path d="M0 0 C0.66 0.33 1.32 0.66 2 1 C2 1.99 2 2.98 2 4 C0.02 4.99 -1.96 5.98 -4 7 C-4 3.09538875 -2.66236719 2.66236719 0 0 Z " fill="#476650" transform="translate(303,161)"/>
<path d="M0 0 C3.3 1.65 6.6 3.3 10 5 C6 6 6 6 2.75 4.1875 C1.8425 3.465625 0.935 2.74375 0 2 C0 1.34 0 0.68 0 0 Z " fill="#657F6B" transform="translate(242,121)"/>
<path d="M0 0 C0.33 0 0.66 0 1 0 C1.25532751 3.06393013 1.21861333 4.63233212 -0.375 7.3125 C-1.179375 8.1478125 -1.179375 8.1478125 -2 9 C-2.66 9 -3.32 9 -4 9 C-2.94124926 5.59687262 -1.99097846 2.98646769 0 0 Z " fill="#637F69" transform="translate(333,110)"/>
<path d="M0 0 C0.66 0.33 1.32 0.66 2 1 C1 4 1 4 -0.8125 5.25 C-3 6 -3 6 -7 5 C-4.69 3.35 -2.38 1.7 0 0 Z " fill="#768C7C" transform="translate(200,14)"/>
<path d="M0 0 C1.60495567 0.11442461 3.20898119 0.24194694 4.8125 0.375 C5.70582031 0.44460938 6.59914063 0.51421875 7.51953125 0.5859375 C10 1 10 1 13 3 C9.57056481 4.18771723 7.62215325 3.80226223 4.25 2.5625 C3.45078125 2.27503906 2.6515625 1.98757813 1.828125 1.69140625 C1.22484375 1.46324219 0.6215625 1.23507812 0 1 C0 0.67 0 0.34 0 0 Z " fill="#7C927F" transform="translate(358,262)"/>
<path d="M0 0 C0 0.66 0 1.32 0 2 C-1.98 2.99 -3.96 3.98 -6 5 C-6 3.35 -6 1.7 -6 0 C-3.50907189 -1.24546405 -2.58919267 -0.7767578 0 0 Z " fill="#5F7B67" transform="translate(217,217)"/>
<path d="M0 0 C0.66 0.33 1.32 0.66 2 1 C1.67 2.65 1.34 4.3 1 6 C-0.98 6 -2.96 6 -5 6 C-5 5.34 -5 4.68 -5 4 C-3.37373596 2.61767557 -1.7074998 1.28062485 0 0 Z " fill="#2A5436" transform="translate(143,217)"/>
<path d="M0 0 C-4.30769231 3.07692308 -4.30769231 3.07692308 -7.8125 2.6875 C-8.534375 2.460625 -9.25625 2.23375 -10 2 C-3.75 -1.125 -3.75 -1.125 0 0 Z " fill="#617964" transform="translate(74,131)"/>
<path d="M0 0 C1.32 0.66 2.64 1.32 4 2 C3.67 3.32 3.34 4.64 3 6 C1.68 6.33 0.36 6.66 -1 7 C-0.67 4.69 -0.34 2.38 0 0 Z " fill="#4B6F54" transform="translate(398,64)"/>
<path d="M0 0 C2.64 0.99 5.28 1.98 8 3 C8 3.99 8 4.98 8 6 C7.67 5.34 7.34 4.68 7 4 C6.01 4.33 5.02 4.66 4 5 C3.67 4.01 3.34 3.02 3 2 C2.01 2.33 1.02 2.66 0 3 C0 2.01 0 1.02 0 0 Z " fill="#6D8775" transform="translate(367,39)"/>
<path d="M0 0 C1.32 0.66 2.64 1.32 4 2 C4 2.99 4 3.98 4 5 C2.35 4.67 0.7 4.34 -1 4 C-0.67 2.68 -0.34 1.36 0 0 Z " fill="#507159" transform="translate(323,18)"/>
<path d="M0 0 C2.4375 0.375 2.4375 0.375 5 1 C5.33 1.66 5.66 2.32 6 3 C3.69 3.33 1.38 3.66 -1 4 C-0.67 2.68 -0.34 1.36 0 0 Z " fill="#476C52" transform="translate(317,15)"/>
<path d="M0 0 C1.98 0.99 1.98 0.99 4 2 C3.67 2.99 3.34 3.98 3 5 C2.34 5 1.68 5 1 5 C0.67 5.66 0.34 6.32 0 7 C0 4.69 0 2.38 0 0 Z " fill="#2A5A38" transform="translate(301,188)"/>
<path d="M0 0 C0.99 0 1.98 0 3 0 C3 1.65 3 3.3 3 5 C1.68 5 0.36 5 -1 5 C-0.67 3.35 -0.34 1.7 0 0 Z " fill="#3A5A43" transform="translate(135,173)"/>
<path d="M0 0 C2.475 0.495 2.475 0.495 5 1 C5.33 2.65 5.66 4.3 6 6 C3.97945196 4.35830472 1.97956942 2.69088222 0 1 C0 0.67 0 0.34 0 0 Z " fill="#668070" transform="translate(221,125)"/>
<path d="M0 0 C1.32 0 2.64 0 4 0 C4 0.66 4 1.32 4 2 C4.66 2.33 5.32 2.66 6 3 C5.67 3.66 5.34 4.32 5 5 C5.66 5.33 6.32 5.66 7 6 C6.01 6 5.02 6 4 6 C3.71125 5.195625 3.4225 4.39125 3.125 3.5625 C2.26737432 0.8673532 2.26737432 0.8673532 0 0 Z " fill="#607B65" transform="translate(267,111)"/>
<path d="M0 0 C0.66 0.66 1.32 1.32 2 2 C1.67 2.99 1.34 3.98 1 5 C-0.32 5 -1.64 5 -3 5 C-2.625 3.0625 -2.625 3.0625 -2 1 C-1.34 0.67 -0.68 0.34 0 0 Z " fill="#486B51" transform="translate(379,96)"/>
<path d="M0 0 C0.99 0.33 1.98 0.66 3 1 C2.34 2.98 1.68 4.96 1 7 C0.01 5.68 -0.98 4.36 -2 3 C-1 1 -1 1 0 0 Z " fill="#517F5C" transform="translate(94,84)"/>
<path d="M0 0 C1.32 0 2.64 0 4 0 C4 0.66 4 1.32 4 2 C2.68 2.33 1.36 2.66 0 3 C0 3.66 0 4.32 0 5 C-0.99 4.67 -1.98 4.34 -3 4 C-2.34 3.67 -1.68 3.34 -1 3 C-0.67 2.01 -0.34 1.02 0 0 Z " fill="#30563A" transform="translate(217,6)"/>
</svg>
